<svg version="1.1" xmlns="http://www.w3.org/2000/svg" viewBox="0 0 693.8942522321428 789.4285714285716" width="693.8942522321428" height="789.4285714285716">
  <!-- svg-source:excalidraw -->
  
  <defs>
    <style class="style-fonts">
      @font-face {
        font-family: "Virgil";
        src: url("https://excalidraw.com/Virgil.woff2");
      }
      @font-face {
        font-family: "Cascadia";
        src: url("https://excalidraw.com/Cascadia.woff2");
      }
      @font-face {
        font-family: "Assistant";
        src: url("https://excalidraw.com/Assistant-Regular.woff2");
      }
    </style>
    
  </defs>
  <g transform="translate(12.651666913713711 10) rotate(0 52.130859375 16.09999999999991)"><text x="52.130859375" y="25.760546874999996" font-family="Helvetica, Segoe UI Emoji" font-size="28px" fill="#f08c00" text-anchor="middle" style="white-space: pre;" direction="ltr" dominant-baseline="alphabetic">program</text></g><g stroke-linecap="round" transform="translate(19.334821428571445 76.42857142857201) rotate(0 47.14285714285711 123)"><path d="M0 0 L94.29 0 L94.29 246 L0 246" stroke="none" stroke-width="0" fill="#ebfbee"></path><path d="M0 0 C29.1 0, 58.2 0, 94.29 0 M0 0 C27.61 0, 55.21 0, 94.29 0 M94.29 0 C94.29 68.79, 94.29 137.57, 94.29 246 M94.29 0 C94.29 86.98, 94.29 173.97, 94.29 246 M94.29 246 C58.19 246, 22.09 246, 0 246 M94.29 246 C66.01 246, 37.74 246, 0 246 M0 246 C0 172.2, 0 98.41, 0 0 M0 246 C0 191.31, 0 136.63, 0 0" stroke="#f08c00" stroke-width="1" fill="none"></path></g><g transform="translate(24.334821428571445 81.8285714285721) rotate(0 41.015625 117.59999999999991)"><text x="0" y="27.0375" font-family="Cascadia, Segoe UI Emoji" font-size="28px" fill="#f08c00" text-anchor="start" style="white-space: pre;" direction="ltr" dominant-baseline="alphabetic">main{</text><text x="0" y="60.6375" font-family="Cascadia, Segoe UI Emoji" font-size="28px" fill="#f08c00" text-anchor="start" style="white-space: pre;" direction="ltr" dominant-baseline="alphabetic">……</text><text x="0" y="94.23750000000001" font-family="Cascadia, Segoe UI Emoji" font-size="28px" fill="#f08c00" text-anchor="start" style="white-space: pre;" direction="ltr" dominant-baseline="alphabetic"></text><text x="0" y="127.8375" font-family="Cascadia, Segoe UI Emoji" font-size="28px" fill="#f08c00" text-anchor="start" style="white-space: pre;" direction="ltr" dominant-baseline="alphabetic"></text><text x="0" y="161.4375" font-family="Cascadia, Segoe UI Emoji" font-size="28px" fill="#f08c00" text-anchor="start" style="white-space: pre;" direction="ltr" dominant-baseline="alphabetic"></text><text x="0" y="195.0375" font-family="Cascadia, Segoe UI Emoji" font-size="28px" fill="#f08c00" text-anchor="start" style="white-space: pre;" direction="ltr" dominant-baseline="alphabetic"></text><text x="0" y="228.63750000000002" font-family="Cascadia, Segoe UI Emoji" font-size="28px" fill="#f08c00" text-anchor="start" style="white-space: pre;" direction="ltr" dominant-baseline="alphabetic">sum()</text></g><g mask="url(#mask-tIVlXTd2fdLsL9voKAXAD)" stroke-linecap="round"><g transform="translate(631.7633928571428 82.28571428571468) rotate(0 0 348.57142857142844)"><path d="M0 0 C0 270.8, 0 541.6, 0 697.14 M0 0 C0 189.1, 0 378.2, 0 697.14" stroke="#e03131" stroke-width="1" fill="none"></path></g><g transform="translate(631.7633928571428 82.28571428571468) rotate(0 0 348.57142857142844)"><path d="M-8.55 673.65 C-5.23 682.78, -1.91 691.9, 0 697.14 M-8.55 673.65 C-6.23 680.02, -3.91 686.39, 0 697.14" stroke="#e03131" stroke-width="1" fill="none"></path></g><g transform="translate(631.7633928571428 82.28571428571468) rotate(0 0 348.57142857142844)"><path d="M8.55 673.65 C5.23 682.78, 1.91 691.9, 0 697.14 M8.55 673.65 C6.23 680.02, 3.91 686.39, 0 697.14" stroke="#e03131" stroke-width="1" fill="none"></path></g></g><mask id="mask-tIVlXTd2fdLsL9voKAXAD"><rect x="0" y="0" fill="#fff" width="731.7633928571428" height="879.4285714285716"></rect><rect x="579.6325334821428" y="414.7571428571432" fill="#000" width="104.26171875" height="32.199999999999996" opacity="1"></rect></mask><g transform="translate(579.6325334821428 414.7571428571432) rotate(0 52.130859375 16.09999999999991)"><text x="52.130859375" y="25.760546874999996" font-family="Helvetica, Segoe UI Emoji" font-size="28px" fill="#e03131" text-anchor="middle" style="white-space: pre;" direction="ltr" dominant-baseline="alphabetic">time line</text></g><g mask="url(#mask-zPtfefB-bdRpfCVU1t7qS)" stroke-linecap="round"><g transform="translate(123.19196428571422 305.57142857142844) rotate(0 130.71428571428572 0)"><path d="M0 0 C82.14 0, 164.28 0, 261.43 0 M0 0 C68.1 0, 136.21 0, 261.43 0" stroke="#f08c00" stroke-width="1" fill="none"></path></g><g transform="translate(123.19196428571422 305.57142857142844) rotate(0 130.71428571428572 0)"><path d="M237.94 8.55 C245.32 5.86, 252.7 3.18, 261.43 0 M237.94 8.55 C244.06 6.32, 250.18 4.1, 261.43 0" stroke="#f08c00" stroke-width="1" fill="none"></path></g><g transform="translate(123.19196428571422 305.57142857142844) rotate(0 130.71428571428572 0)"><path d="M237.94 -8.55 C245.32 -5.86, 252.7 -3.18, 261.43 0 M237.94 -8.55 C244.06 -6.32, 250.18 -4.1, 261.43 0" stroke="#f08c00" stroke-width="1" fill="none"></path></g></g><mask id="mask-zPtfefB-bdRpfCVU1t7qS"><rect x="0" y="0" fill="#fff" width="484.62053571428567" height="405.57142857142844"></rect><rect x="202.5615234375" y="289.47142857142853" fill="#000" width="102.689453125" height="32.199999999999996" opacity="1"></rect></mask><g transform="translate(202.5615234375 289.47142857142853) rotate(0 51.34472656249994 16.09999999999991)"><text x="51.3447265625" y="25.760546874999996" font-family="Helvetica, Segoe UI Emoji" font-size="28px" fill="#f08c00" text-anchor="middle" style="white-space: pre;" direction="ltr" dominant-baseline="alphabetic">call sum</text></g><g stroke-linecap="round" transform="translate(416.049107142857 310.7142857142858) rotate(0 47.85714285714289 90)"><path d="M0 0 L95.71 0 L95.71 180 L0 180" stroke="none" stroke-width="0" fill="#ebfbee"></path><path d="M0 0 C31.83 0, 63.66 0, 95.71 0 M0 0 C29.34 0, 58.68 0, 95.71 0 M95.71 0 C95.71 50.96, 95.71 101.91, 95.71 180 M95.71 0 C95.71 46.02, 95.71 92.05, 95.71 180 M95.71 180 C69.89 180, 44.07 180, 0 180 M95.71 180 C58.94 180, 22.16 180, 0 180 M0 180 C0 131.72, 0 83.45, 0 0 M0 180 C0 141.24, 0 102.48, 0 0" stroke="#2f9e44" stroke-width="1" fill="none"></path></g><g transform="translate(421.049107142857 316.7142857142858) rotate(0 41.015625 84)"><text x="0" y="27.0375" font-family="Cascadia, Segoe UI Emoji" font-size="28px" fill="#2f9e44" text-anchor="start" style="white-space: pre;" direction="ltr" dominant-baseline="alphabetic">void </text><text x="0" y="60.6375" font-family="Cascadia, Segoe UI Emoji" font-size="28px" fill="#2f9e44" text-anchor="start" style="white-space: pre;" direction="ltr" dominant-baseline="alphabetic">sum()</text><text x="0" y="94.23750000000001" font-family="Cascadia, Segoe UI Emoji" font-size="28px" fill="#2f9e44" text-anchor="start" style="white-space: pre;" direction="ltr" dominant-baseline="alphabetic">{</text><text x="0" y="127.8375" font-family="Cascadia, Segoe UI Emoji" font-size="28px" fill="#2f9e44" text-anchor="start" style="white-space: pre;" direction="ltr" dominant-baseline="alphabetic">……</text><text x="0" y="161.4375" font-family="Cascadia, Segoe UI Emoji" font-size="28px" fill="#2f9e44" text-anchor="start" style="white-space: pre;" direction="ltr" dominant-baseline="alphabetic">}</text></g><g stroke-linecap="round" transform="translate(19.33482142857133 506.5714285714289) rotate(0 47.14285714285711 123)"><path d="M0 0 L94.29 0 L94.29 246 L0 246" stroke="none" stroke-width="0" fill="#ebfbee"></path><path d="M0 0 C35.59 0, 71.18 0, 94.29 0 M0 0 C34.8 0, 69.61 0, 94.29 0 M94.29 0 C94.29 85.85, 94.29 171.7, 94.29 246 M94.29 0 C94.29 71.45, 94.29 142.9, 94.29 246 M94.29 246 C74.06 246, 53.83 246, 0 246 M94.29 246 C75.23 246, 56.18 246, 0 246 M0 246 C0 151.18, 0 56.35, 0 0 M0 246 C0 179.69, 0 113.37, 0 0" stroke="#f08c00" stroke-width="1" fill="none"></path></g><g transform="translate(24.33482142857133 545.5714285714289) rotate(0 41.015625 84)"><text x="0" y="27.0375" font-family="Cascadia, Segoe UI Emoji" font-size="28px" fill="#f08c00" text-anchor="start" style="white-space: pre;" direction="ltr" dominant-baseline="alphabetic">main{</text><text x="0" y="60.6375" font-family="Cascadia, Segoe UI Emoji" font-size="28px" fill="#f08c00" text-anchor="start" style="white-space: pre;" direction="ltr" dominant-baseline="alphabetic">……</text><text x="0" y="94.23750000000001" font-family="Cascadia, Segoe UI Emoji" font-size="28px" fill="#f08c00" text-anchor="start" style="white-space: pre;" direction="ltr" dominant-baseline="alphabetic">sum()</text><text x="0" y="127.8375" font-family="Cascadia, Segoe UI Emoji" font-size="28px" fill="#f08c00" text-anchor="start" style="white-space: pre;" direction="ltr" dominant-baseline="alphabetic">……</text><text x="0" y="161.4375" font-family="Cascadia, Segoe UI Emoji" font-size="28px" fill="#f08c00" text-anchor="start" style="white-space: pre;" direction="ltr" dominant-baseline="alphabetic">}</text></g><g mask="url(#mask-z0HBULBOAgznCCpkoGs6l)" stroke-linecap="round"><g transform="translate(388.9062499999999 487.8571428571431) rotate(0 -129.28571428571428 0.7142857142855519)"><path d="M0 0 C-76.76 0.42, -153.52 0.85, -258.57 1.43 M0 0 C-89.86 0.5, -179.72 0.99, -258.57 1.43" stroke="#2f9e44" stroke-width="1" fill="none"></path></g><g transform="translate(388.9062499999999 487.8571428571431) rotate(0 -129.28571428571428 0.7142857142855519)"><path d="M-235.13 -7.25 C-242.09 -4.67, -249.05 -2.1, -258.57 1.43 M-235.13 -7.25 C-243.27 -4.24, -251.42 -1.22, -258.57 1.43" stroke="#2f9e44" stroke-width="1" fill="none"></path></g><g transform="translate(388.9062499999999 487.8571428571431) rotate(0 -129.28571428571428 0.7142857142855519)"><path d="M-235.03 9.85 C-242.02 7.35, -249.01 4.85, -258.57 1.43 M-235.03 9.85 C-243.21 6.92, -251.39 4, -258.57 1.43" stroke="#2f9e44" stroke-width="1" fill="none"></path></g></g><mask id="mask-z0HBULBOAgznCCpkoGs6l"><rect x="0" y="0" fill="#fff" width="747.4776785714284" height="589.2857142857142"></rect><rect x="210.40178571428555" y="471.7714285714287" fill="#000" width="98.4375" height="33.6" opacity="1"></rect></mask><g transform="translate(210.40178571428555 471.7714285714287) rotate(0 49.21875000000006 16.799999999999955)"><text x="49.21875" y="27.0375" font-family="Cascadia, Segoe UI Emoji" font-size="28px" fill="#2f9e44" text-anchor="middle" style="white-space: pre;" direction="ltr" dominant-baseline="alphabetic">return</text></g><g stroke-linecap="round"><g transform="translate(63.19196428571422 335.00000000000045) rotate(0 0 76.42857142857133)"><path d="M0 0 C0 36.16, 0 72.33, 0 152.86" stroke="#2f9e44" stroke-width="1.5" fill="none" stroke-dasharray="1.5 7"></path></g></g><mask></mask><g transform="translate(10 384.6000000000008) rotate(0 52.734375 24)"><text x="52.734375" y="19.3125" font-family="Cascadia, Segoe UI Emoji" font-size="20px" fill="#2f9e44" text-anchor="middle" style="white-space: pre;" direction="ltr" dominant-baseline="alphabetic">wait sum </text><text x="52.734375" y="43.3125" font-family="Cascadia, Segoe UI Emoji" font-size="20px" fill="#2f9e44" text-anchor="middle" style="white-space: pre;" direction="ltr" dominant-baseline="alphabetic">return</text></g><g transform="translate(392.1184430803571 10.328571428572104) rotate(0 73.9306640625 16.09999999999991)"><text x="73.9306640625" y="25.760546874999996" font-family="Helvetica, Segoe UI Emoji" font-size="28px" fill="#2f9e44" text-anchor="middle" style="white-space: pre;" direction="ltr" dominant-baseline="alphabetic">call function</text></g></svg>