<svg version="1.1" xmlns="http://www.w3.org/2000/svg" viewBox="0 0 691.2425853184291 789.428571428572" width="691.2425853184291" height="789.428571428572">
  <!-- svg-source:excalidraw -->
  
  <defs>
    <style class="style-fonts">
      @font-face {
        font-family: "Virgil";
        src: url("https://excalidraw.com/Virgil.woff2");
      }
      @font-face {
        font-family: "Cascadia";
        src: url("https://excalidraw.com/Cascadia.woff2");
      }
      @font-face {
        font-family: "Assistant";
        src: url("https://excalidraw.com/Assistant-Regular.woff2");
      }
    </style>
    
  </defs>
  <g transform="translate(10 10) rotate(0 52.130859375 16.09999999999991)"><text x="52.130859375" y="25.760546874999996" font-family="Helvetica, Segoe UI Emoji" font-size="28px" fill="#f08c00" text-anchor="middle" style="white-space: pre;" direction="ltr" dominant-baseline="alphabetic">program</text></g><g stroke-linecap="round" transform="translate(16.683154514857733 76.42857142857247) rotate(0 47.14285714285711 350.78571428571445)"><path d="M0 0 L94.29 0 L94.29 701.57 L0 701.57" stroke="none" stroke-width="0" fill="#ebfbee"></path><path d="M0 0 C18.98 0, 37.96 0, 94.29 0 M0 0 C36.13 0, 72.27 0, 94.29 0 M94.29 0 C94.29 259.9, 94.29 519.81, 94.29 701.57 M94.29 0 C94.29 225.98, 94.29 451.96, 94.29 701.57 M94.29 701.57 C59.12 701.57, 23.95 701.57, 0 701.57 M94.29 701.57 C66.76 701.57, 39.23 701.57, 0 701.57 M0 701.57 C0 542.28, 0 382.98, 0 0 M0 701.57 C0 482.31, 0 263.04, 0 0" stroke="#f08c00" stroke-width="1" fill="none"></path></g><g transform="translate(21.683154514857733 326.4142857142874) rotate(0 41.015625 100.80000000000018)"><text x="0" y="27.0375" font-family="Cascadia, Segoe UI Emoji" font-size="28px" fill="#f08c00" text-anchor="start" style="white-space: pre;" direction="ltr" dominant-baseline="alphabetic">main{</text><text x="0" y="60.6375" font-family="Cascadia, Segoe UI Emoji" font-size="28px" fill="#f08c00" text-anchor="start" style="white-space: pre;" direction="ltr" dominant-baseline="alphabetic">……</text><text x="0" y="94.23750000000001" font-family="Cascadia, Segoe UI Emoji" font-size="28px" fill="#f08c00" text-anchor="start" style="white-space: pre;" direction="ltr" dominant-baseline="alphabetic"></text><text x="0" y="127.8375" font-family="Cascadia, Segoe UI Emoji" font-size="28px" fill="#f08c00" text-anchor="start" style="white-space: pre;" direction="ltr" dominant-baseline="alphabetic">delet</text><text x="0" y="161.4375" font-family="Cascadia, Segoe UI Emoji" font-size="28px" fill="#f08c00" text-anchor="start" style="white-space: pre;" direction="ltr" dominant-baseline="alphabetic">e_fil</text><text x="0" y="195.0375" font-family="Cascadia, Segoe UI Emoji" font-size="28px" fill="#f08c00" text-anchor="start" style="white-space: pre;" direction="ltr" dominant-baseline="alphabetic">e()</text></g><g mask="url(#mask-TF5lFItA6vgteIkmR3zis)" stroke-linecap="round"><g transform="translate(629.1117259434291 82.28571428571468) rotate(0 0 348.57142857142867)"><path d="M0 0 C0 214.94, 0 429.89, 0 697.14 M0 0 C0 184.39, 0 368.78, 0 697.14" stroke="#e03131" stroke-width="1" fill="none"></path></g><g transform="translate(629.1117259434291 82.28571428571468) rotate(0 0 348.57142857142867)"><path d="M-8.55 673.65 C-5.91 680.89, -3.28 688.14, 0 697.14 M-8.55 673.65 C-6.29 679.86, -4.03 686.08, 0 697.14" stroke="#e03131" stroke-width="1" fill="none"></path></g><g transform="translate(629.1117259434291 82.28571428571468) rotate(0 0 348.57142857142867)"><path d="M8.55 673.65 C5.91 680.89, 3.28 688.14, 0 697.14 M8.55 673.65 C6.29 679.86, 4.03 686.08, 0 697.14" stroke="#e03131" stroke-width="1" fill="none"></path></g></g><mask id="mask-TF5lFItA6vgteIkmR3zis"><rect x="0" y="0" fill="#fff" width="729.1117259434291" height="879.4285714285716"></rect><rect x="576.9808665684291" y="414.7571428571432" fill="#000" width="104.26171875" height="32.199999999999996" opacity="1"></rect></mask><g transform="translate(576.9808665684291 414.75714285714366) rotate(0 52.130859375 16.100000000000136)"><text x="52.130859375" y="25.760546874999996" font-family="Helvetica, Segoe UI Emoji" font-size="28px" fill="#e03131" text-anchor="middle" style="white-space: pre;" direction="ltr" dominant-baseline="alphabetic">time line</text></g><g mask="url(#mask-zz3j9Se13XaFKSZMQJF_i)" stroke-linecap="round"><g transform="translate(117.68315451485773 388.428571428572) rotate(0 130.71428571428572 0)"><path d="M0 0 C94.79 0, 189.58 0, 261.43 0 M0 0 C85.44 0, 170.89 0, 261.43 0" stroke="#f08c00" stroke-width="1" fill="none"></path></g><g transform="translate(117.68315451485773 388.428571428572) rotate(0 130.71428571428572 0)"><path d="M237.94 8.55 C246.45 5.45, 254.97 2.35, 261.43 0 M237.94 8.55 C245.61 5.76, 253.29 2.96, 261.43 0" stroke="#f08c00" stroke-width="1" fill="none"></path></g><g transform="translate(117.68315451485773 388.428571428572) rotate(0 130.71428571428572 0)"><path d="M237.94 -8.55 C246.45 -5.45, 254.97 -2.35, 261.43 0 M237.94 -8.55 C245.61 -5.76, 253.29 -2.96, 261.43 0" stroke="#f08c00" stroke-width="1" fill="none"></path></g></g><mask id="mask-zz3j9Se13XaFKSZMQJF_i"><rect x="0" y="0" fill="#fff" width="479.1117259434292" height="488.428571428572"></rect><rect x="227.3906042916435" y="372.3285714285721" fill="#000" width="42.013671875" height="32.199999999999996" opacity="1"></rect></mask><g transform="translate(227.3906042916435 372.3285714285721) rotate(0 21.006835937499943 16.100000000000364)"><text x="21.0068359375" y="25.760546874999996" font-family="Helvetica, Segoe UI Emoji" font-size="28px" fill="#f08c00" text-anchor="middle" style="white-space: pre;" direction="ltr" dominant-baseline="alphabetic">call</text></g><g stroke-linecap="round" transform="translate(421.9688688005717 392.14285714285734) rotate(0 47.85714285714289 156.5)"><path d="M0 0 L95.71 0 L95.71 313 L0 313" stroke="none" stroke-width="0" fill="#ebfbee"></path><path d="M0 0 C35.15 0, 70.3 0, 95.71 0 M0 0 C22.54 0, 45.08 0, 95.71 0 M95.71 0 C95.71 107.91, 95.71 215.83, 95.71 313 M95.71 0 C95.71 100.34, 95.71 200.69, 95.71 313 M95.71 313 C57.72 313, 19.72 313, 0 313 M95.71 313 C67.17 313, 38.63 313, 0 313 M0 313 C0 229.72, 0 146.43, 0 0 M0 313 C0 209.83, 0 106.65, 0 0" stroke="#2f9e44" stroke-width="1" fill="none"></path></g><g transform="translate(426.9688688005717 397.4428571428575) rotate(0 41.015625 151.19999999999982)"><text x="0" y="27.0375" font-family="Cascadia, Segoe UI Emoji" font-size="28px" fill="#2f9e44" text-anchor="start" style="white-space: pre;" direction="ltr" dominant-baseline="alphabetic">void </text><text x="0" y="60.6375" font-family="Cascadia, Segoe UI Emoji" font-size="28px" fill="#2f9e44" text-anchor="start" style="white-space: pre;" direction="ltr" dominant-baseline="alphabetic">delet</text><text x="0" y="94.23750000000001" font-family="Cascadia, Segoe UI Emoji" font-size="28px" fill="#2f9e44" text-anchor="start" style="white-space: pre;" direction="ltr" dominant-baseline="alphabetic">e_fil</text><text x="0" y="127.8375" font-family="Cascadia, Segoe UI Emoji" font-size="28px" fill="#2f9e44" text-anchor="start" style="white-space: pre;" direction="ltr" dominant-baseline="alphabetic">e(){</text><text x="0" y="161.4375" font-family="Cascadia, Segoe UI Emoji" font-size="28px" fill="#2f9e44" text-anchor="start" style="white-space: pre;" direction="ltr" dominant-baseline="alphabetic"></text><text x="0" y="195.0375" font-family="Cascadia, Segoe UI Emoji" font-size="28px" fill="#2f9e44" text-anchor="start" style="white-space: pre;" direction="ltr" dominant-baseline="alphabetic">……</text><text x="0" y="228.63750000000002" font-family="Cascadia, Segoe UI Emoji" font-size="28px" fill="#2f9e44" text-anchor="start" style="white-space: pre;" direction="ltr" dominant-baseline="alphabetic">callb</text><text x="0" y="262.2375" font-family="Cascadia, Segoe UI Emoji" font-size="28px" fill="#2f9e44" text-anchor="start" style="white-space: pre;" direction="ltr" dominant-baseline="alphabetic">ack</text><text x="0" y="295.83750000000003" font-family="Cascadia, Segoe UI Emoji" font-size="28px" fill="#2f9e44" text-anchor="start" style="white-space: pre;" direction="ltr" dominant-baseline="alphabetic">}</text></g><g mask="url(#mask-gJsO2XI6TQT6KBbc3d9Ys)" stroke-linecap="round"><g transform="translate(386.2545830862862 487.85714285714266) rotate(0 -129.28571428571428 0.7142857142853245)"><path d="M0 0 C-92.43 0.51, -184.87 1.02, -258.57 1.43 M0 0 C-67.31 0.37, -134.62 0.74, -258.57 1.43" stroke="#2f9e44" stroke-width="1" fill="none"></path></g><g transform="translate(386.2545830862862 487.85714285714266) rotate(0 -129.28571428571428 0.7142857142853245)"><path d="M-235.13 -7.25 C-243.51 -4.15, -251.89 -1.05, -258.57 1.43 M-235.13 -7.25 C-241.23 -4.99, -247.33 -2.73, -258.57 1.43" stroke="#2f9e44" stroke-width="1" fill="none"></path></g><g transform="translate(386.2545830862862 487.85714285714266) rotate(0 -129.28571428571428 0.7142857142853245)"><path d="M-235.03 9.85 C-243.45 6.84, -251.86 3.83, -258.57 1.43 M-235.03 9.85 C-241.16 7.66, -247.29 5.47, -258.57 1.43" stroke="#2f9e44" stroke-width="1" fill="none"></path></g></g><mask id="mask-gJsO2XI6TQT6KBbc3d9Ys"><rect x="0" y="0" fill="#fff" width="744.8260116577147" height="589.2857142857138"></rect><rect x="191.34386880057195" y="471.77142857142826" fill="#000" width="131.25" height="33.6" opacity="1"></rect></mask><g transform="translate(191.34386880057195 471.77142857142826) rotate(0 65.62499999999994 16.800000000000182)"><text x="65.625" y="27.0375" font-family="Cascadia, Segoe UI Emoji" font-size="28px" fill="#2f9e44" text-anchor="middle" style="white-space: pre;" direction="ltr" dominant-baseline="alphabetic">callback</text></g><g transform="translate(389.4667761666435 10.328571428572104) rotate(0 73.9306640625 16.09999999999991)"><text x="73.9306640625" y="25.760546874999996" font-family="Helvetica, Segoe UI Emoji" font-size="28px" fill="#2f9e44" text-anchor="middle" style="white-space: pre;" direction="ltr" dominant-baseline="alphabetic">call function</text></g></svg>