<svg version="1.1" xmlns="http://www.w3.org/2000/svg" viewBox="0 0 364.2232894897461 590.2549180808865" width="364.2232894897461" height="590.2549180808865">
  <!-- svg-source:excalidraw -->
  
  <defs>
    <style class="style-fonts">
      @font-face {
        font-family: "Virgil";
        src: url("https://excalidraw.com/Virgil.woff2");
      }
      @font-face {
        font-family: "Cascadia";
        src: url("https://excalidraw.com/Cascadia.woff2");
      }
      @font-face {
        font-family: "Assistant";
        src: url("https://excalidraw.com/Assistant-Regular.woff2");
      }
    </style>
    
  </defs>
  <g stroke-opacity="0.8" fill-opacity="0.8" stroke-linecap="round" transform="translate(48.12998249394491 25.418864571116046) rotate(0 8.192505349246403 9.54834577927852)"><path d="M1.49 3.95 C1.49 3.95, 1.49 3.95, 1.49 3.95 M1.49 3.95 C1.49 3.95, 1.49 3.95, 1.49 3.95 M3.17 15.38 C5.58 13.45, 6.71 8.02, 11.26 3.11 M1.93 15.93 C5.24 12.52, 7.36 9.73, 12.06 2.54 M9.2 18.58 C12.48 15.34, 14.56 13.9, 15.98 11.67 M9.5 19.52 C12.78 15.47, 14.96 12.76, 17.13 10.13" stroke="#ffffff" stroke-width="1" fill="none"></path><path d="M6.03 -0.17 C7.59 -0.86, 9.36 0.33, 11 1.17 C12.65 2.01, 14.98 3.13, 15.9 4.88 C16.82 6.62, 16.94 9.6, 16.54 11.64 C16.14 13.67, 15.03 15.75, 13.49 17.11 C11.95 18.47, 9.23 20.05, 7.31 19.8 C5.4 19.54, 3.07 17.12, 1.98 15.59 C0.9 14.07, 0.9 12.55, 0.79 10.64 C0.69 8.73, 0.39 6.01, 1.34 4.13 C2.28 2.25, 5.71 0.06, 6.45 -0.66 C7.2 -1.37, 5.77 -0.58, 5.83 -0.17 M4.72 -0.15 C6.69 -1.03, 10.64 -0.17, 12.43 0.7 C14.22 1.57, 14.68 3.51, 15.44 5.07 C16.2 6.63, 17.11 8.08, 16.98 10.07 C16.85 12.05, 16.04 15.43, 14.67 16.97 C13.31 18.5, 10.86 19.42, 8.8 19.26 C6.75 19.11, 3.99 17.4, 2.33 16.04 C0.68 14.68, -1.1 13.17, -1.15 11.09 C-1.2 9.01, 0.99 5.35, 2.04 3.57 C3.08 1.78, 4.76 0.96, 5.14 0.36 C5.51 -0.23, 4.36 -0.16, 4.28 -0.01" stroke="#000000" stroke-width="2" fill="none"></path></g><g stroke-linecap="round"><g stroke-opacity="0.8" fill-opacity="0.8" transform="translate(57.36346290205631 63.52418826812391) rotate(0 1.7585486943242472 9.254078574223968)"><path d="M-0.76 0.93 C-0.55 5.88, -2.4 14.57, -1.16 17.7 M-0.1 -0.35 C0.01 5.71, -2.1 13.17, -1.86 18.44 M-2.5 18.08 C0.44 18.97, 1.77 17.95, 5.76 18.16 M-1.83 18.51 C0.15 18.17, 2.11 18.49, 5.54 18.55" stroke="#000000" stroke-width="2" fill="none"></path></g></g><mask></mask><g stroke-linecap="round"><g stroke-opacity="0.8" fill-opacity="0.8" transform="translate(45.065386347326466 62.45184792859345) rotate(0 -4.822071514574361 11.021877747598523)"><path d="M0.34 -1.13 C-1.66 5.78, -0.66 9.22, -2 20.39 M0.72 -0.57 C-1.85 7.8, -1.91 14.11, -2.91 20.85 M-2.52 21.09 C-4.68 20.34, -5.26 20.86, -9.97 22.69 M-2.58 20.38 C-4.57 21.11, -6.83 21.56, -9.77 21.86" stroke="#000000" stroke-width="2" fill="none"></path></g></g><mask></mask><g stroke-linecap="round"><g stroke-opacity="0.8" fill-opacity="0.8" transform="translate(58.84273353182448 45.23016394797082) rotate(0 4.216232771366492 2.0912865315337967)"><path d="M-0.58 0.48 C3.04 3.2, 5.58 7.22, 7.8 10.36 M-0.57 0.47 C1.98 2.78, 3.78 5.65, 6.67 9.93 M6.67 9.78 C7.48 7.95, 6.42 7.04, 6.49 1.96 M7.62 10.51 C7.15 7.82, 6.54 4.83, 6.07 1.88 M6.36 1.43 C5.69 -0.48, 5.4 -2.57, 5.58 -3.91 M6.38 1.67 C5.89 0.32, 5.82 -1.3, 4.98 -3.37 M4.89 -3.83 C6.3 -4.28, 7.62 -5.76, 8.26 -6.54 M5.1 -3.41 C6.09 -4.7, 7.26 -5.57, 8.31 -6.45" stroke="#000000" stroke-width="2" fill="none"></path></g></g><mask></mask><g stroke-linecap="round"><g stroke-opacity="0.8" fill-opacity="0.8" transform="translate(48.96736459322847 44.746994722689806) rotate(0 -10.045180593843611 11.091245520432722)"><path d="M0.76 -0.81 C-3.54 3.85, -7.68 7.97, -18.1 18.11 M0 -0.02 C-4.51 4.36, -9.48 7.33, -17.86 17 M-17.01 16.37 C-18.65 19.2, -19.31 20.66, -19.99 22.48 M-17.2 16.71 C-18.01 17.72, -18.76 19.08, -19.9 21.95" stroke="#000000" stroke-width="2" fill="none"></path></g></g><mask></mask><g stroke-linecap="round"><g stroke-opacity="0.8" fill-opacity="0.8" transform="translate(31.28803916282834 62.45184792859345) rotate(0 0.17221683980619673 1.894385237868505)"><path d="M0.1 -0.03 C0.23 1.25, 0.15 2.74, 0.2 3.56 M-0.02 0.02 C0.01 1.3, 0.19 2.88, 0.42 3.7" stroke="#000000" stroke-width="2" fill="none"></path></g></g><mask></mask><g stroke-linecap="round"><g stroke-opacity="0.8" fill-opacity="0.8" transform="translate(31.28803916282834 61.07411321014388) rotate(0 -2.411035757287152 1.2055178786436045)"><path d="M0.15 -0.04 C-1.38 0.88, -2.7 0.93, -4.56 2.41 M-0.17 -0.16 C-1.53 0.78, -2.77 1.32, -4.97 2.51" stroke="#000000" stroke-width="2" fill="none"></path></g></g><mask></mask><g stroke-linecap="round"><g stroke-opacity="0.8" fill-opacity="0.8" transform="translate(31.976906522053014 62.10741424898106) rotate(0 1.5499515582560548 0.17221683980619673)"><path d="M-0.08 0.15 C0.77 -0.08, 1.93 0.2, 3.1 0.31 M-0.05 0.03 C1.05 0.06, 1.89 0.29, 3.05 0.3" stroke="#000000" stroke-width="2" fill="none"></path></g></g><mask></mask><g stroke-linecap="round"><g stroke-opacity="0.8" fill-opacity="0.8" transform="translate(58.498299852212085 44.885730268357975) rotate(0 -6.086598462859229 9.644143029148722)" fill-rule="evenodd"><path d="M-9.21 -0.05 C-9.21 -0.05, -9.21 -0.05, -9.21 -0.05 M-9.21 -0.05 C-9.21 -0.05, -9.21 -0.05, -9.21 -0.05 M-14.15 15.94 C-7.86 8.69, -3.13 4.6, 2.14 1.56 M-13.47 15.89 C-9.64 11.54, -5.14 8.09, 1.57 -0.28 M-6.74 22.66 C-4.33 20.74, -3.21 15.3, 1.35 10.39 M-7.98 23.22 C-4.68 19.8, -2.55 17.01, 2.14 9.83" stroke="#ffffff" stroke-width="1" fill="none"></path><path d="M0.86 -0.69 C0.91 1.02, 0.8 6.4, 0.2 9.79 C-0.41 13.17, -0.45 18.22, -2.75 19.61 C-5.06 21, -12.33 20.5, -13.62 18.13 C-14.9 15.76, -11.14 8.39, -10.47 5.38 C-9.8 2.36, -10.88 1.03, -9.59 0.05 C-8.3 -0.92, -4.16 -0.57, -2.73 -0.48 C-1.3 -0.38, -1.35 0.65, -0.99 0.64 M-0.15 1.57 C0.28 2.99, 2.91 4.91, 2.35 8.13 C1.79 11.36, -0.88 19.04, -3.52 20.91 C-6.15 22.78, -12.57 21.97, -13.46 19.35 C-14.35 16.73, -9.69 8.56, -8.86 5.21 C-8.04 1.85, -9.7 -0.14, -8.5 -0.78 C-7.31 -1.41, -3.31 1.17, -1.71 1.41 C-0.1 1.64, 0.65 0.63, 1.12 0.63" stroke="#000000" stroke-width="2" fill="none"></path></g></g><mask></mask><g stroke-linecap="round"><g stroke-opacity="0.8" fill-opacity="0.8" transform="translate(61.41004239127517 35.62059259939497) rotate(0 2.928554728146082 1.2014583500088065)" fill-rule="evenodd"><path d="M-0.67 -0.65 C-0.02 -0.08, 1.67 3.51, 2.78 4.15 C3.89 4.8, 5.62 4.38, 5.97 3.22 C6.32 2.07, 5.68 -2.24, 4.88 -2.77 C4.08 -3.3, 1.88 -0.43, 1.17 0.06" stroke="none" stroke-width="0" fill="#fa5252" fill-rule="evenodd"></path><path d="M-0.31 0.26 C-0.11 0.97, 0.48 3.58, 1.5 4.05 C2.52 4.51, 5.41 4.07, 5.8 3.07 C6.2 2.07, 4.88 -1.48, 3.88 -1.97 C2.88 -2.46, 0.42 -0.17, -0.19 0.12 M0.17 0.09 C0.31 0.88, 0.33 3.93, 1.22 4.49 C2.12 5.06, 5.12 4.54, 5.55 3.49 C5.98 2.44, 4.65 -1.27, 3.78 -1.8 C2.92 -2.34, 1.05 -0.07, 0.36 0.29" stroke="#000000" stroke-width="2" fill="none"></path></g></g><mask></mask><g stroke-linecap="round"><g stroke-opacity="0.8" fill-opacity="0.8" transform="translate(66.34516482139782 33.660852480035146) rotate(0 5.932200603167701 -1.1263672031332135)" fill-rule="evenodd"><path d="M4.83 -6.4 C4.83 -6.4, 4.83 -6.4, 4.83 -6.4 M4.83 -6.4 C4.83 -6.4, 4.83 -6.4, 4.83 -6.4 M4.96 5.64 C6.52 3.85, 8.07 2.06, 10.87 -1.15 M4.96 5.64 C6.66 3.69, 8.36 1.74, 10.87 -1.15" stroke="#fa5252" stroke-width="1" fill="none"></path><path d="M0 0 C1.15 -1.25, 4.93 -8.13, 6.91 -7.51 C8.89 -6.88, 12.69 1.63, 11.86 3.75 C11.04 5.88, 3.6 5.01, 1.95 5.26 M0 0 C1.15 -1.25, 4.93 -8.13, 6.91 -7.51 C8.89 -6.88, 12.69 1.63, 11.86 3.75 C11.04 5.88, 3.6 5.01, 1.95 5.26" stroke="#000000" stroke-width="2" fill="none"></path></g></g><mask></mask><g stroke-linecap="round"><g stroke-opacity="0.8" fill-opacity="0.8" transform="translate(63.79968214185692 39.82159065849851) rotate(0 2.1776432593906634 1.5018229375108376)" fill-rule="evenodd"><path d="M0 0 C0 0, 0 0, 0 0 M0 0 C0 0, 0 0, 0 0" stroke="#fa5252" stroke-width="1" fill="none"></path><path d="M0 0 C0.25 0.6, 0.78 3.2, 1.5 3.6 C2.23 4, 4.08 3.1, 4.36 2.4 C4.63 1.7, 3.35 -0.1, 3.15 -0.6 M0 0 C0.25 0.6, 0.78 3.2, 1.5 3.6 C2.23 4, 4.08 3.1, 4.36 2.4 C4.63 1.7, 3.35 -0.1, 3.15 -0.6" stroke="#000000" stroke-width="2" fill="none"></path></g></g><mask></mask><g stroke-linecap="round"><g stroke-opacity="0.8" fill-opacity="0.8" transform="translate(78.96265358626806 25.704455045896793) rotate(0 1.201458350008636 2.5530989937683444)"><path d="M-0.33 -0.32 C0.05 0.54, 1.73 4.36, 2.22 5.22 M0.15 0.29 C0.65 1.04, 2.52 3.86, 2.92 4.66" stroke="#000000" stroke-width="2" fill="none"></path></g></g><mask></mask><g stroke-linecap="round"><g stroke-opacity="0.8" fill-opacity="0.8" transform="translate(80.61465881752997 20.898621645862022) rotate(0 4.280195371905791 5.55674486879002)"><path d="M-0.29 0.18 C1.05 0.75, 6.14 1.06, 7.54 2.93 C8.94 4.8, 7.98 10.08, 8.11 11.41 M0.56 -0.2 C1.9 0.47, 5.84 1.65, 7.27 3.43 C8.71 5.22, 9.02 9.19, 9.19 10.49" stroke="#000000" stroke-width="2" fill="none"></path></g></g><mask></mask><g stroke-linecap="round"><g stroke-opacity="0.8" fill-opacity="0.8" transform="translate(84.96994533631141 15.041512189569858) rotate(0 5.106197987536802 7.659296981305033)"><path d="M0.33 -0.38 C1.78 0.14, 6.8 0.72, 8.41 3.3 C10.01 5.87, 9.56 13.05, 9.95 15.06 M-0.17 0.62 C1.47 0.96, 7.8 -0.01, 9.41 2.48 C11.01 4.96, 9.46 13.3, 9.46 15.53" stroke="#000000" stroke-width="2" fill="none"></path></g></g><mask></mask><g stroke-opacity="0.8" fill-opacity="0.8" transform="translate(56.60720759890614 31.49961190699787) rotate(0 0.000013480017571509961 0.000013480017514666542)" stroke="none"><path fill="#000000" d="M 1.57,-1.57 Q 1.57,-1.57 1.77,-1.27 1.98,-0.98 2.09,-0.64 2.20,-0.29 2.19,0.05 2.18,0.41 2.05,0.75 1.93,1.09 1.70,1.37 1.48,1.65 1.18,1.84 0.87,2.03 0.52,2.12 0.18,2.21 -0.17,2.18 -0.53,2.15 -0.86,2.01 -1.19,1.87 -1.46,1.63 -1.73,1.39 -1.90,1.07 -2.08,0.76 -2.15,0.41 -2.21,0.05 -2.17,-0.29 -2.12,-0.65 -1.96,-0.97 -1.80,-1.29 -1.54,-1.54 -1.29,-1.80 -0.97,-1.96 -0.65,-2.12 -0.29,-2.17 0.06,-2.21 0.41,-2.15 0.76,-2.08 1.07,-1.90 1.39,-1.73 1.63,-1.46 1.87,-1.19 2.01,-0.86 2.15,-0.53 2.18,-0.17 2.21,0.18 2.12,0.52 2.03,0.87 1.84,1.18 1.65,1.48 1.37,1.70 1.09,1.93 0.75,2.05 0.41,2.18 0.05,2.19 -0.30,2.20 -0.64,2.09 -0.98,1.98 -1.27,1.77 -1.57,1.56 -1.57,1.56 -1.57,1.57 -1.73,1.35 -1.90,1.14 -2.01,0.90 -2.12,0.66 -2.16,0.39 -2.21,0.13 -2.20,-0.13 -2.18,-0.40 -2.10,-0.65 -2.02,-0.91 -1.88,-1.14 -1.74,-1.36 -1.55,-1.55 -1.36,-1.74 -1.14,-1.88 -0.91,-2.02 -0.65,-2.10 -0.40,-2.18 -0.13,-2.20 0.13,-2.21 0.39,-2.16 0.66,-2.12 0.90,-2.01 1.14,-1.90 1.35,-1.73 1.57,-1.57 1.57,-1.57 L 1.57,-1.57 Z"></path></g><g stroke-opacity="0.8" fill-opacity="0.8" transform="translate(62.257897614459694 31.25392973240855) rotate(0 0.000013480017571509961 0.000013480017514666542)" stroke="none"><path fill="#000000" d="M 1.57,-1.57 Q 1.57,-1.57 1.77,-1.27 1.98,-0.98 2.09,-0.64 2.20,-0.29 2.19,0.05 2.18,0.41 2.05,0.75 1.93,1.09 1.70,1.37 1.48,1.65 1.18,1.84 0.87,2.03 0.52,2.12 0.18,2.21 -0.17,2.18 -0.53,2.15 -0.86,2.01 -1.19,1.87 -1.46,1.63 -1.73,1.39 -1.90,1.07 -2.08,0.76 -2.15,0.41 -2.21,0.05 -2.17,-0.29 -2.12,-0.65 -1.96,-0.97 -1.80,-1.29 -1.54,-1.54 -1.29,-1.80 -0.97,-1.96 -0.65,-2.12 -0.29,-2.17 0.06,-2.21 0.41,-2.15 0.76,-2.08 1.07,-1.90 1.39,-1.73 1.63,-1.46 1.87,-1.19 2.01,-0.86 2.15,-0.53 2.18,-0.17 2.21,0.18 2.12,0.52 2.03,0.87 1.84,1.18 1.65,1.48 1.37,1.70 1.09,1.93 0.75,2.05 0.41,2.18 0.05,2.19 -0.30,2.20 -0.64,2.09 -0.98,1.98 -1.27,1.77 -1.57,1.56 -1.57,1.56 -1.57,1.57 -1.73,1.35 -1.90,1.14 -2.01,0.90 -2.12,0.66 -2.16,0.39 -2.21,0.13 -2.20,-0.13 -2.18,-0.40 -2.10,-0.65 -2.02,-0.91 -1.88,-1.14 -1.74,-1.36 -1.55,-1.55 -1.36,-1.74 -1.14,-1.88 -0.91,-2.02 -0.65,-2.10 -0.40,-2.18 -0.13,-2.20 0.13,-2.21 0.39,-2.16 0.66,-2.12 0.90,-2.01 1.14,-1.90 1.35,-1.73 1.57,-1.57 1.57,-1.57 L 1.57,-1.57 Z"></path></g><g stroke-opacity="0.8" fill-opacity="0.8" transform="translate(59.30971151938843 35.676208875015845) rotate(0 0.000013480017571509961 0.000013480017514666542)" stroke="none"><path fill="#000000" d="M 3.14,-3.14 Q 3.14,-3.14 3.55,-2.55 3.97,-1.97 4.18,-1.28 4.40,-0.59 4.38,0.11 4.36,0.83 4.11,1.51 3.86,2.18 3.41,2.74 2.96,3.30 2.36,3.69 1.75,4.07 1.05,4.25 0.36,4.42 -0.35,4.36 -1.07,4.30 -1.73,4.02 -2.39,3.74 -2.92,3.26 -3.46,2.78 -3.81,2.15 -4.16,1.53 -4.30,0.82 -4.43,0.11 -4.34,-0.59 -4.24,-1.30 -3.92,-1.94 -3.60,-2.59 -3.09,-3.09 -2.59,-3.60 -1.94,-3.92 -1.30,-4.24 -0.59,-4.34 0.12,-4.43 0.82,-4.30 1.53,-4.16 2.15,-3.81 2.78,-3.46 3.26,-2.92 3.74,-2.39 4.02,-1.73 4.31,-1.07 4.36,-0.35 4.42,0.36 4.25,1.05 4.07,1.75 3.69,2.36 3.30,2.96 2.74,3.41 2.18,3.86 1.51,4.11 0.83,4.36 0.11,4.38 -0.60,4.40 -1.28,4.18 -1.97,3.97 -2.55,3.55 -3.14,3.13 -3.14,3.13 -3.14,3.14 -3.47,2.71 -3.80,2.29 -4.02,1.80 -4.24,1.32 -4.33,0.79 -4.43,0.26 -4.40,-0.26 -4.36,-0.80 -4.20,-1.31 -4.04,-1.82 -3.77,-2.28 -3.49,-2.73 -3.11,-3.11 -2.73,-3.49 -2.28,-3.77 -1.82,-4.05 -1.31,-4.20 -0.80,-4.36 -0.26,-4.40 0.26,-4.43 0.79,-4.33 1.32,-4.24 1.80,-4.02 2.29,-3.80 2.71,-3.47 3.14,-3.14 3.14,-3.14 L 3.14,-3.14 Z"></path></g><g stroke-opacity="0.8" fill-opacity="0.8" stroke-linecap="round" transform="translate(266.86671154608575 15.67095738127341) rotate(0 13.845288623730312 13.076105922411898)"><path d="M1.58 6.68 C1.58 6.68, 1.58 6.68, 1.58 6.68 M1.58 6.68 C1.58 6.68, 1.58 6.68, 1.58 6.68 M1.62 17.71 C8 13.33, 12.99 7.88, 14.06 5.25 M3.7 17.3 C5.5 14.13, 9.4 11.29, 15.09 2.79 M7.38 25.26 C11.26 17.66, 17.26 12.57, 22.36 6.04 M6.42 23.84 C12.83 17.2, 18.87 11, 23.69 5.26 M13.08 26.96 C18.19 22.81, 23.02 18.57, 28.27 12.94 M14.08 27.99 C17.5 23.97, 21.35 18.84, 30.16 10.32" stroke="#ffffff" stroke-width="1" fill="none"></path><path d="M11.1 -0.2 C13.62 -1.06, 16.48 0.12, 18.89 1.47 C21.3 2.81, 24.1 5.23, 25.56 7.89 C27.03 10.55, 28.32 14.7, 27.68 17.43 C27.05 20.16, 24.24 22.77, 21.76 24.26 C19.28 25.76, 15.67 26.71, 12.8 26.41 C9.93 26.11, 6.7 24.5, 4.52 22.44 C2.34 20.38, 0.17 16.74, -0.27 14.05 C-0.71 11.36, -0.39 8.73, 1.9 6.32 C4.18 3.91, 11.1 0.67, 13.43 -0.39 C15.76 -1.46, 15.78 -0.45, 15.9 -0.07 M13.94 -1.2 C16.54 -1.68, 19.06 0.79, 21.53 2.62 C24 4.46, 27.9 7.17, 28.73 9.82 C29.57 12.47, 28.29 15.82, 26.53 18.53 C24.78 21.23, 21.17 24.9, 18.19 26.03 C15.21 27.16, 11.16 26.23, 8.65 25.3 C6.14 24.37, 4.45 22.58, 3.15 20.43 C1.84 18.28, 0.49 15.31, 0.82 12.4 C1.15 9.49, 3.09 5.13, 5.15 2.97 C7.2 0.81, 11.77 -0.18, 13.13 -0.56 C14.48 -0.94, 13.09 0.13, 13.28 0.67" stroke="#000000" stroke-width="2" fill="none"></path></g><g stroke-linecap="round"><g stroke-opacity="0.8" fill-opacity="0.8" transform="translate(275.3277212605875 41.82316922609766) rotate(0 7.9814904687476655 10.495837503792245)" fill-rule="evenodd"><path d="M0 0 C0 0, 0 0, 0 0 M0 0 C0 0, 0 0, 0 0 M1.78 13.9 C4.96 7.05, 6.46 3.52, 11.85 0.09 M0.21 11.17 C3.56 6.45, 9.54 1.97, 10.23 -0.93 M3.16 24.59 C6.65 13.17, 14.08 6.52, 19.12 9.72 M2.8 23.61 C6.18 14.81, 13.05 11.04, 17.09 7.64 M12.46 21.83 C13.81 21.46, 14.22 20.1, 14.93 20.11 M12.96 22.04 C13.33 21.07, 14.32 20.06, 14.7 19.43" stroke="#ffffff" stroke-width="1" fill="none"></path><path d="M-1.42 0.35 C-1.19 2.47, 1.08 11.53, 1.03 14.76 C0.98 18, -3.98 19, -1.73 19.77 C0.51 20.53, 11.45 20.98, 14.51 19.35 C17.58 17.72, 16.35 13.4, 16.64 9.98 C16.92 6.57, 17.79 0.41, 16.22 -1.13 C14.66 -2.68, 9.82 0.28, 7.27 0.72 C4.71 1.16, 2.01 1.79, 0.89 1.52 M3.01 -1.93 C2.99 -0.76, -0.85 6.96, -0.66 10.86 C-0.47 14.77, 1.48 19.87, 4.16 21.5 C6.83 23.13, 13.83 22.26, 15.39 20.62 C16.96 18.98, 14.06 15.67, 13.53 11.66 C13.01 7.64, 12.92 -1.2, 12.24 -3.49 C11.55 -5.77, 11.63 -2.88, 9.41 -2.04 C7.2 -1.2, 1.04 0.53, -1.05 1.54" stroke="#000000" stroke-width="2" fill="none"></path></g></g><mask></mask><g stroke-linecap="round"><g stroke-opacity="0.8" fill-opacity="0.8" transform="translate(275.67194281837305 64.83068555268846) rotate(0 -5.259761455112937 11.78186565945316)"><path d="M1.46 -1.24 C-1.94 5.74, -2.05 11.18, 0.35 23.19 M0.32 0.54 C0.09 6.27, -0.35 12.48, 0.2 21.74 M0.27 22.03 C-3.31 22.38, -5.09 23.12, -11.35 23.18 M-0.53 21.32 C-4 22.41, -7.03 22.62, -10.23 23.62" stroke="#000000" stroke-width="2" fill="none"></path></g></g><mask></mask><g stroke-linecap="round"><g stroke-opacity="0.8" fill-opacity="0.8" transform="translate(289.9784939762808 63.56834280346129) rotate(0 5.259761455112994 12.72862272137354)"><path d="M-1.81 0.39 C-1.45 8.11, 1.43 17, 0.55 23.55 M0.2 -0.31 C0.15 6.76, 1.18 15.16, 0.01 22.7 M0.3 23.16 C3.68 23.99, 4.68 23.65, 10.55 26.45 M0.02 23.06 C2.87 23.42, 6.48 24.36, 10.77 25.74" stroke="#000000" stroke-width="2" fill="none"></path></g></g><mask></mask><g stroke-linecap="round"><g stroke-opacity="0.8" fill-opacity="0.8" transform="translate(296.95539117201497 46.04182331048446) rotate(0 -3.4008576106535315 -2.6653583105007783)"><path d="M-0.51 0.14 C-1.3 -0.76, -3.17 -2.29, -6.64 -5.15 M-0.02 -0.19 C-2.18 -1.82, -4.94 -3.8, -6.94 -5.07" stroke="#000000" stroke-width="2" fill="none"></path></g></g><mask></mask><g stroke-linecap="round"><g stroke-opacity="0.8" fill-opacity="0.8" transform="translate(275.0358645810003 40.84617331737286) rotate(0 8.649380335492538 8.498302452634675)"><path d="M0.92 1.61 C-2.45 6.22, -4.47 11.47, -6.56 17.36 M0.77 0.26 C-2.42 4.5, -4.53 9.91, -7.05 16.89 M-9.2 16.24 C3.52 16.07, 14.23 11.97, 24.33 7.78 M-7 17.1 C4.78 14.82, 16.65 11.07, 24.94 8.94" stroke="#000000" stroke-width="2" fill="none"></path></g></g><mask></mask><g stroke-opacity="0.8" fill-opacity="0.8" transform="translate(284.81212240499474 29.459324593281963) rotate(0 0.000018460384808349772 0.000018460384808349772)" stroke="none"><path fill="#000000" d="M 1.57,-1.57 Q 1.57,-1.57 1.77,-1.27 1.98,-0.98 2.09,-0.64 2.20,-0.29 2.19,0.05 2.18,0.41 2.05,0.75 1.93,1.09 1.70,1.37 1.48,1.65 1.18,1.84 0.87,2.03 0.52,2.12 0.18,2.21 -0.17,2.18 -0.53,2.15 -0.86,2.01 -1.19,1.87 -1.46,1.63 -1.73,1.39 -1.90,1.07 -2.08,0.76 -2.15,0.41 -2.21,0.05 -2.17,-0.29 -2.12,-0.65 -1.96,-0.97 -1.80,-1.29 -1.54,-1.54 -1.29,-1.80 -0.97,-1.96 -0.65,-2.12 -0.29,-2.17 0.06,-2.21 0.41,-2.15 0.76,-2.08 1.07,-1.90 1.39,-1.73 1.63,-1.46 1.87,-1.19 2.01,-0.86 2.15,-0.53 2.18,-0.17 2.21,0.18 2.12,0.52 2.03,0.87 1.84,1.18 1.65,1.48 1.37,1.70 1.09,1.93 0.75,2.05 0.41,2.18 0.05,2.19 -0.30,2.20 -0.64,2.09 -0.98,1.98 -1.27,1.77 -1.57,1.56 -1.57,1.57 -1.57,1.57 -1.73,1.35 -1.90,1.14 -2.01,0.90 -2.12,0.66 -2.16,0.39 -2.21,0.13 -2.20,-0.13 -2.18,-0.40 -2.10,-0.65 -2.02,-0.91 -1.88,-1.14 -1.74,-1.36 -1.55,-1.55 -1.36,-1.74 -1.14,-1.88 -0.91,-2.02 -0.65,-2.10 -0.40,-2.18 -0.13,-2.20 0.13,-2.21 0.39,-2.16 0.66,-2.12 0.90,-2.01 1.14,-1.90 1.35,-1.73 1.57,-1.57 1.57,-1.57 L 1.57,-1.57 Z"></path></g><g stroke-opacity="0.8" fill-opacity="0.8" transform="translate(289.7582485561585 28.222649248150447) rotate(0 0 -0.26629717092487226)" stroke="none"><path fill="#000000" d="M 2.12,-0.66 Q 2.12,-0.66 2.15,-0.13 2.18,0.40 1.96,0.88 1.74,1.36 1.32,1.69 0.91,2.02 0.38,2.12 -0.13,2.21 -0.64,2.05 -1.14,1.90 -1.52,1.52 -1.90,1.14 -2.05,0.64 -2.21,0.13 -2.12,-0.38 -2.02,-0.91 -1.69,-1.32 -1.36,-1.74 -0.88,-1.96 -0.39,-2.18 0.13,-2.15 0.66,-2.11 1.11,-1.84 1.57,-1.56 1.84,-1.11 L 2.12,-0.66 Z"></path></g><g stroke-linecap="round"><g stroke-opacity="0.8" fill-opacity="0.8" transform="translate(291.3316197095513 32.82255211477309) rotate(25.810438890233822 -2.2359163740799772 1.2421757633778725)" fill-rule="evenodd"><path d="M-4.6 2.63 C-4.6 2.63, -4.6 2.63, -4.6 2.63 M-4.6 2.63 C-4.6 2.63, -4.6 2.63, -4.6 2.63 M-4.66 2.32 C-4.66 2.32, -4.66 2.32, -4.66 2.32 M-4.66 2.32 C-4.66 2.32, -4.66 2.32, -4.66 2.32 M-0.53 0.61 C-0.53 0.61, -0.53 0.61, -0.53 0.61 M-0.53 0.61 C-0.53 0.61, -0.53 0.61, -0.53 0.61" stroke="#ffffff" stroke-width="0.5" fill="none"></path><path d="M0.11 0.19 C-0.16 0.48, -0.71 1.46, -1.47 1.8 C-2.24 2.14, -4.04 2.11, -4.49 2.24 M-0.26 -0.02 C-0.58 0.31, -0.97 1.77, -1.72 2.19 C-2.46 2.61, -4.35 2.38, -4.73 2.51" stroke="#000000" stroke-width="1" fill="none"></path></g></g><mask></mask><g stroke-linecap="round"><g transform="translate(298.28342789603016 39.302360002734076) rotate(0 8.712597990958045 8.991893154182321)" fill-rule="evenodd"><path d="M0 0 C0 0, 0 0, 0 0 M0 0 C0 0, 0 0, 0 0 M-1.57 7.91 C0.8 4.16, 3.23 3.24, 7.61 -2.66 M-1.57 7.91 C1.29 4.81, 3.03 2.17, 7.61 -2.66 M-3.8 16.57 C1.44 11.03, 3.98 8.55, 14.57 -4.56 M-3.8 16.57 C3.04 9.71, 9.77 2.67, 14.57 -4.56 M-4.72 23.72 C0.84 15.87, 9.93 9.38, 16.27 -0.43 M-4.72 23.72 C2.84 16.71, 8.65 7.78, 16.27 -0.43 M3.55 20.31 C10.59 12.97, 16.15 3.51, 24.54 -3.84 M3.55 20.31 C9.31 14.49, 14.93 7.32, 24.54 -3.84 M11.81 16.89 C13.17 14.13, 16.4 11.95, 21.65 5.57 M11.81 16.89 C13.97 13.73, 16.01 11.3, 21.65 5.57 M13.52 21.03 C14.46 20.12, 16.07 17.08, 19.43 14.24 M13.52 21.03 C15.43 18.45, 17.71 15.51, 19.43 14.24" stroke="#868e96" stroke-width="0.5" fill="none"></path><path d="M0.23 -0.37 C-0.68 3.26, -5.69 19.01, -5.12 22.45 C-4.54 25.88, 1.89 20.16, 3.67 20.23 C5.44 20.31, 4.4 23.39, 5.54 22.9 C6.67 22.41, 8.78 17.58, 10.48 17.28 C12.19 16.98, 13.68 24.73, 15.76 21.1 C17.85 17.47, 22.79 -0.76, 22.97 -4.48 C23.15 -8.2, 18.44 -1.15, 16.83 -1.22 C15.22 -1.29, 14.46 -5.31, 13.29 -4.9 C12.13 -4.49, 10.96 1.21, 9.85 1.26 C8.73 1.31, 8.4 -4.5, 6.61 -4.59 C4.81 -4.67, 0.34 0.04, -0.92 0.77 M-1.1 -1.62 C-2.21 2.09, -6.85 19.67, -6.1 23.56 C-5.35 27.45, 1.49 21.66, 3.42 21.73 C5.36 21.8, 4.03 25.19, 5.53 23.99 C7.02 22.8, 10.98 15.24, 12.37 14.57 C13.76 13.9, 11.95 23.31, 13.87 19.98 C15.79 16.66, 23.49 -2.34, 23.87 -5.41 C24.26 -8.47, 17.66 1.73, 16.19 1.59 C14.72 1.44, 16.48 -6.12, 15.04 -6.26 C13.61 -6.41, 8.88 0.3, 7.55 0.71 C6.22 1.13, 8.18 -3.78, 7.06 -3.77 C5.94 -3.76, 2.23 0.32, 0.84 0.75" stroke="#000000" stroke-width="1" fill="none"></path></g></g><mask></mask><g stroke-linecap="round"><g transform="translate(295.67171243224675 50.086558604905804) rotate(0 1.6487351231128855 -1.7121480124634445)"><path d="M-0.02 -0.24 C0.57 -0.78, 3.06 -2.79, 3.59 -3.33 M-0.46 0.4 C0.1 -0.23, 2.91 -3.32, 3.47 -3.9" stroke="#000000" stroke-width="1" fill="none"></path></g></g><mask></mask><g stroke-linecap="round"><g transform="translate(316.0906628031066 44.50622434206207) rotate(0 0.8877804509069733 1.0146062296079208)"><path d="M0.3 0.1 C0.57 0.48, 1.41 1.65, 1.63 2.02 M0.02 -0.16 C0.24 0.3, 1.07 2.14, 1.28 2.47" stroke="#000000" stroke-width="1" fill="none"></path></g></g><mask></mask><g stroke-linecap="round"><g transform="translate(315.3297081309006 46.91591413738092) rotate(0 1.7121480124633877 -0.3170644467525108)"><path d="M-0.15 -0.01 C0.35 -0.08, 2.62 -0.21, 3.25 -0.32 M0.43 -0.32 C0.83 -0.49, 2.38 -0.78, 2.89 -0.78" stroke="#000000" stroke-width="1" fill="none"></path></g></g><mask></mask><g stroke-linecap="round"><g transform="translate(306.88145866448497 41.20178056901932) rotate(0 -2.910147693180704 9.045053640967012)"><path d="M-0.26 0.49 C-1.15 3.5, -4.62 15.03, -5.51 18.02 M0.6 0.27 C-0.31 3.36, -4.71 15.81, -5.78 18.69" stroke="#000000" stroke-width="1" fill="none"></path></g></g><mask></mask><g stroke-linecap="round"><g transform="translate(313.80289101583367 39.31411720046958) rotate(0 -2.2809265703307915 8.101221956692143)"><path d="M0.31 -0.07 C-0.37 2.61, -3.58 13.93, -4.33 16.57 M-0.2 -0.57 C-0.9 2.19, -3.95 13.01, -4.65 15.79" stroke="#000000" stroke-width="1" fill="none"></path></g></g><mask></mask><g stroke-linecap="round"><g transform="translate(265.53196100616265 33.96578121140465) rotate(0 16.73132252605859 -11.254522706377543)" fill-rule="evenodd"><path d="M-1.25 -0.83 C4.16 -4.02, 30.52 -16.08, 34.65 -19.02 C38.78 -21.97, 25.89 -18.81, 23.53 -18.49 C21.17 -18.18, 21.54 -17.16, 20.5 -17.11 C19.46 -17.07, 18.18 -17.51, 17.3 -18.2 C16.41 -18.89, 16.54 -20.31, 15.17 -21.27 C13.79 -22.23, 10.78 -23.93, 9.04 -23.96 C7.31 -23.99, 5.83 -23, 4.76 -21.47 C3.69 -19.94, 3.42 -16.12, 2.62 -14.8 C1.83 -13.48, 0.73 -14.95, -0.02 -13.54 C-0.76 -12.13, -2.06 -8.4, -1.85 -6.33 C-1.63 -4.26, 1.28 -2.29, 1.27 -1.13" stroke="none" stroke-width="0" fill="#fab005" fill-rule="evenodd"></path><path d="M0.5 0.8 C6.41 -2.79, 32.33 -18.73, 36.12 -21.68 C39.92 -24.64, 25.64 -17.37, 23.26 -16.93 C20.88 -16.5, 22.73 -18.46, 21.84 -19.08 C20.95 -19.7, 19.37 -20.22, 17.94 -20.66 C16.51 -21.11, 14.89 -21.45, 13.28 -21.74 C11.67 -22.03, 9.75 -22.81, 8.27 -22.39 C6.8 -21.98, 5.58 -20.25, 4.42 -19.26 C3.26 -18.26, 2.23 -17.48, 1.31 -16.44 C0.38 -15.4, -0.63 -14.36, -1.15 -13.01 C-1.68 -11.65, -2.07 -10.51, -1.84 -8.29 C-1.62 -6.07, -0.27 -1.25, 0.2 0.31 M-0.7 0.17 C5.05 -3.29, 31.73 -18.03, 35.56 -20.66 C39.39 -23.29, 25.01 -16.03, 22.26 -15.6 C19.5 -15.16, 19.97 -17.26, 19.02 -18.07 C18.08 -18.88, 17.4 -19.72, 16.6 -20.44 C15.79 -21.16, 15.57 -21.81, 14.21 -22.38 C12.84 -22.95, 10.13 -24.34, 8.39 -23.87 C6.65 -23.39, 5.16 -20.6, 3.75 -19.53 C2.35 -18.47, 0.57 -18.45, -0.06 -17.48 C-0.69 -16.51, 0.19 -15.37, -0.04 -13.71 C-0.28 -12.06, -1.3 -9.85, -1.48 -7.55 C-1.65 -5.26, -1.64 -1.35, -1.11 0.05" stroke="#000000" stroke-width="1" fill="none"></path></g></g><mask></mask><g stroke-linecap="round"><g transform="translate(265.4017489863861 36.169729261667726) rotate(0 4.492711679113825 -2.12374595906806)" fill-rule="evenodd"><path d="M0 0 L8.3 -4.92 L8.99 -4.11 L0.44 0.67 L0 0" stroke="none" stroke-width="0" fill="#fa5252" fill-rule="evenodd"></path><path d="M0 0 C2.83 -1.68, 5.67 -3.36, 8.3 -4.92 M0 0 C2.36 -1.4, 4.73 -2.8, 8.3 -4.92 M8.3 -4.92 C8.54 -4.63, 8.79 -4.34, 8.99 -4.11 M8.3 -4.92 C8.48 -4.71, 8.66 -4.5, 8.99 -4.11 M8.99 -4.11 C6.86 -2.92, 4.73 -1.73, 0.44 0.67 M8.99 -4.11 C5.8 -2.33, 2.61 -0.55, 0.44 0.67 M0.44 0.67 C0.29 0.44, 0.14 0.21, 0 0 M0.44 0.67 C0.28 0.43, 0.12 0.19, 0 0 M0 0 C0 0, 0 0, 0 0 M0 0 C0 0, 0 0, 0 0" stroke="#000000" stroke-width="1" fill="none"></path></g></g><mask></mask><g stroke-linecap="round"><g transform="translate(273.8543824273859 31.154460316471614) rotate(0 1.134966501327142 0.08518957769376811)" fill-rule="evenodd"><path d="M0 0 L2.27 -0.57 L0.63 0.74" stroke="none" stroke-width="0" fill="#fab005" fill-rule="evenodd"></path><path d="M0 0 C0.82 -0.21, 1.64 -0.41, 2.27 -0.57 M0 0 C0.62 -0.16, 1.24 -0.31, 2.27 -0.57 M2.27 -0.57 C1.7 -0.11, 1.13 0.34, 0.63 0.74 M2.27 -0.57 C1.74 -0.14, 1.2 0.28, 0.63 0.74 M0.63 0.74 C0.46 0.54, 0.29 0.34, 0 0 M0.63 0.74 C0.39 0.45, 0.14 0.17, 0 0" stroke="#000000" stroke-width="1" fill="none"></path></g></g><mask></mask><g stroke-linecap="round"><g transform="translate(265.4744787123618 32.73538692659349) rotate(0 8.85896803555653 -9.182288036854288)"><path d="M0 0 C2.93 -1.88, 14.64 -8.71, 17.59 -11.25 C20.54 -13.79, 18.24 -14.25, 17.72 -15.26 C17.2 -16.27, 15.56 -16.81, 14.48 -17.33 C13.41 -17.85, 12.44 -18.19, 11.25 -18.36 C10.07 -18.54, 8.88 -18.6, 7.37 -18.36 C5.86 -18.13, 3.06 -17.18, 2.2 -16.94 M0 0 C2.93 -1.88, 14.64 -8.71, 17.59 -11.25 C20.54 -13.79, 18.24 -14.25, 17.72 -15.26 C17.2 -16.27, 15.56 -16.81, 14.48 -17.33 C13.41 -17.85, 12.44 -18.19, 11.25 -18.36 C10.07 -18.54, 8.88 -18.6, 7.37 -18.36 C5.86 -18.13, 3.06 -17.18, 2.2 -16.94" stroke="#000000" stroke-width="1" fill="none"></path></g></g><mask></mask><g transform="translate(29.6666259765625 104.13448449102361) rotate(0 20 12.5)"><text x="0" y="17.52" font-family="Virgil, Segoe UI Emoji" font-size="20px" fill="#1e1e1e" text-anchor="start" style="white-space: pre;" direction="ltr" dominant-baseline="alphabetic">上司</text></g><g transform="translate(256 102.80114098516424) rotate(0 30 12.5)"><text x="0" y="17.52" font-family="Virgil, Segoe UI Emoji" font-size="20px" fill="#1e1e1e" text-anchor="start" style="white-space: pre;" direction="ltr" dominant-baseline="alphabetic">打工人</text></g><g mask="url(#mask-hRUcAXlpVIKTOqRxDE3Z-)" stroke-linecap="round"><g transform="translate(50 139.467827996883) rotate(0 0 70)"><path d="M-0.21 0.6 C-0.18 23.91, -0.43 117.65, -0.45 140.73 M-1.78 -0.14 C-1.9 22.76, -1.72 115.66, -1.63 138.99" stroke="#2f9e44" stroke-width="2" fill="none"></path></g><g transform="translate(50 139.467827996883) rotate(0 0 70)"><path d="M-10.24 115.52 C-6.93 120.63, -4.57 126.73, -1.63 138.99 M-10.24 115.52 C-8.95 119.83, -7.23 125.39, -1.63 138.99" stroke="#2f9e44" stroke-width="2" fill="none"></path></g><g transform="translate(50 139.467827996883) rotate(0 0 70)"><path d="M6.86 115.47 C5.91 120.57, 4.02 126.68, -1.63 138.99 M6.86 115.47 C4.41 119.89, 2.39 125.46, -1.63 138.99" stroke="#2f9e44" stroke-width="2" fill="none"></path></g></g><mask id="mask-hRUcAXlpVIKTOqRxDE3Z-"><rect x="0" y="0" fill="#fff" width="150" height="379.467827996883"></rect><rect x="10" y="196.967827996883" fill="#000" width="80" height="25" opacity="1"></rect></mask><g transform="translate(10 196.967827996883) rotate(0 38.98557267665956 12.79534258464821)"><text x="40" y="17.52" font-family="Virgil, Segoe UI Emoji" font-size="20px" fill="#2f9e44" text-anchor="middle" style="white-space: pre;" direction="ltr" dominant-baseline="alphabetic">要你加班</text></g><g mask="url(#mask-gHvElPPMs2KW2kUXGcN2F)" stroke-linecap="round"><g transform="translate(281.33331298828125 287.467827996883) rotate(0 0 74.33334350585938)"><path d="M-0.65 0.71 C-0.91 25.16, -0.68 123, -0.47 147.57 M1.2 0.03 C0.66 24.52, -1.49 123.68, -1.66 148.54" stroke="#f08c00" stroke-width="2" fill="none"></path></g><g transform="translate(281.33331298828125 287.467827996883) rotate(0 0 74.33334350585938)"><path d="M-9.85 124.92 C-5.33 133.33, -5.16 144.31, -1.66 148.54 M-9.85 124.92 C-7.8 131.45, -5.43 137.09, -1.66 148.54" stroke="#f08c00" stroke-width="2" fill="none"></path></g><g transform="translate(281.33331298828125 287.467827996883) rotate(0 0 74.33334350585938)"><path d="M7.25 125.18 C5.14 133.4, -1.31 144.27, -1.66 148.54 M7.25 125.18 C4.93 131.49, 2.93 137.06, -1.66 148.54" stroke="#f08c00" stroke-width="2" fill="none"></path></g></g><mask id="mask-gHvElPPMs2KW2kUXGcN2F"><rect x="0" y="0" fill="#fff" width="381.33331298828125" height="536.1345150086017"></rect><rect x="208.4433364868164" y="349.30117150274236" fill="#000" width="145.7799530029297" height="25" opacity="1"></rect></mask><g transform="translate(208.4433364868164 349.30117150274236) rotate(0 72.66220643962737 12.451345041589889)"><text x="72.88997650146484" y="17.52" font-family="Virgil, Segoe UI Emoji" font-size="20px" fill="#f08c00" text-anchor="middle" style="white-space: pre;" direction="ltr" dominant-baseline="alphabetic">写 bug 到 2 点</text></g><g mask="url(#mask--Ksv6WIezNKRUgefMxDGW)" stroke-linecap="round"><g transform="translate(52 282.80114098516424) rotate(0 113.33331298828125 2.66668701171875)"><path d="M0.64 0.19 C38.56 0.84, 188.84 3.46, 226.49 4.17" stroke="#f08c00" stroke-width="2.5" fill="none" stroke-dasharray="1.5 8"></path></g><g transform="translate(52 282.80114098516424) rotate(0 113.33331298828125 2.66668701171875)"><path d="M202.85 12.29 C208.2 10.14, 210.99 8.48, 226.49 4.17" stroke="#f08c00" stroke-width="2.5" fill="none" stroke-dasharray="1.5 6"></path></g><g transform="translate(52 282.80114098516424) rotate(0 113.33331298828125 2.66668701171875)"><path d="M203.16 -4.8 C208.48 -3.3, 211.2 -1.32, 226.49 4.17" stroke="#f08c00" stroke-width="2.5" fill="none" stroke-dasharray="1.5 6"></path></g></g><mask id="mask--Ksv6WIezNKRUgefMxDGW"><rect x="0" y="0" fill="#fff" width="378.6666259765625" height="388.13451500860174"></rect><rect x="115.33331298828125" y="272.967827996883" fill="#000" width="100" height="25" opacity="1"></rect></mask><g transform="translate(115.33331298828125 272.967827996883) rotate(0 50.23374518379575 12.013767001777865)"><text x="50" y="17.52" font-family="Virgil, Segoe UI Emoji" font-size="20px" fill="#f08c00" text-anchor="middle" style="white-space: pre;" direction="ltr" dominant-baseline="alphabetic">守着你加班</text></g><g stroke-linecap="round"><g transform="translate(274 435.467827996883) rotate(0 -110 0)"><path d="M0.6 0.61 C-35.98 0.33, -182.64 -0.53, -219.24 -0.78" stroke="#f08c00" stroke-width="2.5" fill="none" stroke-dasharray="1.5 8"></path></g><g transform="translate(274 435.467827996883) rotate(0 -110 0)"><path d="M-195.7 -9.18 C-202.23 -5.08, -212.16 -1.98, -219.24 -0.78" stroke="#f08c00" stroke-width="2.5" fill="none" stroke-dasharray="1.5 6"></path></g><g transform="translate(274 435.467827996883) rotate(0 -110 0)"><path d="M-195.8 7.92 C-202.43 6.49, -212.32 4.07, -219.24 -0.78" stroke="#f08c00" stroke-width="2.5" fill="none" stroke-dasharray="1.5 6"></path></g></g><mask></mask><g mask="url(#mask-Iaz4OEophzChv9BYcxhFy)" stroke-linecap="round"><g transform="translate(48.6666259765625 434.13451500860174) rotate(0 0 72.66665649414062)"><path d="M0.9 0.83 C1.07 24.85, 1.34 120.81, 1.18 144.84 M-0.09 0.22 C0.01 24.34, 0.98 121.8, 0.86 146.12" stroke="#2f9e44" stroke-width="2" fill="none"></path></g><g transform="translate(48.6666259765625 434.13451500860174) rotate(0 0 72.66665649414062)"><path d="M-7.77 122.66 C-3.55 131.92, -3.05 137.22, 0.86 146.12 M-7.77 122.66 C-6.13 130.06, -3.59 135.8, 0.86 146.12" stroke="#2f9e44" stroke-width="2" fill="none"></path></g><g transform="translate(48.6666259765625 434.13451500860174) rotate(0 0 72.66665649414062)"><path d="M9.33 122.6 C8.19 132, 3.34 137.32, 0.86 146.12 M9.33 122.6 C6.32 129.99, 4.19 135.75, 0.86 146.12" stroke="#2f9e44" stroke-width="2" fill="none"></path></g></g><mask id="mask-Iaz4OEophzChv9BYcxhFy"><rect x="0" y="0" fill="#fff" width="148.6666259765625" height="679.467827996883"></rect><rect x="28.6666259765625" y="494.30117150274236" fill="#000" width="40" height="25" opacity="1"></rect></mask><g transform="translate(28.6666259765625 494.30117150274236) rotate(0 20.569592022455936 13.003571546273406)"><text x="20" y="17.52" font-family="Virgil, Segoe UI Emoji" font-size="20px" fill="#2f9e44" text-anchor="middle" style="white-space: pre;" direction="ltr" dominant-baseline="alphabetic">放工</text></g></svg>