<svg version="1.1" xmlns="http://www.w3.org/2000/svg" viewBox="0 0 359.81329345703125 547.8642558791385" width="359.81329345703125" height="547.8642558791385">
  <!-- svg-source:excalidraw -->
  
  <defs>
    <style class="style-fonts">
      @font-face {
        font-family: "Virgil";
        src: url("https://excalidraw.com/Virgil.woff2");
      }
      @font-face {
        font-family: "Cascadia";
        src: url("https://excalidraw.com/Cascadia.woff2");
      }
      @font-face {
        font-family: "Assistant";
        src: url("https://excalidraw.com/Assistant-Regular.woff2");
      }
    </style>
    
  </defs>
  <g stroke-opacity="0.8" fill-opacity="0.8" stroke-linecap="round" transform="translate(266.86671154608575 15.918869393106888) rotate(0 13.845288623730312 13.076105922411898)"><path d="M7.4 1.13 C7.4 1.13, 7.4 1.13, 7.4 1.13 M7.4 1.13 C7.4 1.13, 7.4 1.13, 7.4 1.13 M0.81 19.19 C5.73 14.28, 11.44 9.7, 17.55 2.85 M2.42 19.42 C8.88 12.07, 13.28 4.77, 18.84 0.78 M8.79 24.69 C15.12 20.52, 17.55 13.17, 26.04 6.58 M8.82 24.74 C14.32 16.94, 21.85 10.49, 24.59 5.75 M18.94 24.07 C19.57 23.6, 23.29 19.87, 27.3 16.01 M18.06 25.63 C20.26 22.58, 23.3 20.37, 26.73 14.89" stroke="#ffffff" stroke-width="1" fill="none"></path><path d="M15.71 0.19 C18.4 0.52, 22.79 2.19, 24.65 4.32 C26.51 6.46, 26.89 9.96, 26.86 13 C26.84 16.04, 26.26 20.54, 24.49 22.55 C22.73 24.57, 19.25 24.96, 16.3 25.12 C13.35 25.28, 9.44 24.82, 6.78 23.51 C4.12 22.2, 1.27 19.64, 0.32 17.24 C-0.64 14.85, -0.15 11.87, 1.06 9.14 C2.27 6.42, 4.44 2.24, 7.59 0.91 C10.74 -0.42, 17.67 0.93, 19.97 1.16 C22.28 1.39, 21.68 2.21, 21.42 2.26 M13.57 -0.49 C16.37 -0.53, 19.74 1.39, 21.95 3.27 C24.17 5.16, 26.28 7.86, 26.84 10.84 C27.4 13.83, 26.5 18.85, 25.31 21.19 C24.11 23.53, 22.27 23.93, 19.69 24.87 C17.12 25.8, 12.79 27.54, 9.86 26.81 C6.93 26.08, 3.8 23, 2.14 20.51 C0.48 18.02, -0.84 14.82, -0.12 11.88 C0.6 8.95, 4.01 5.13, 6.45 2.92 C8.88 0.72, 13.11 -0.77, 14.5 -1.35 C15.88 -1.93, 14.61 -1.14, 14.76 -0.56" stroke="#000000" stroke-width="2" fill="none"></path></g><g stroke-linecap="round"><g stroke-opacity="0.8" fill-opacity="0.8" transform="translate(275.3277212605874 42.071081237930684) rotate(0 7.9814904687476655 10.495837503792245)" fill-rule="evenodd"><path d="M0 0 C0 0, 0 0, 0 0 M0 0 C0 0, 0 0, 0 0 M-0.68 14.81 C7.66 6.66, 10.12 -1.44, 13.02 -2.64 M0.32 11.39 C4.26 5.92, 8.64 2.08, 11.3 -0.81 M4.22 24.59 C2.17 15.3, 10.01 11.44, 19.94 5.25 M0.46 23.21 C3.36 17.48, 8.75 13.69, 18.6 3.37 M14.18 20.93 C17.39 19.6, 18.24 17.59, 20.26 10.24 M12.1 22.96 C12.97 20.62, 16.15 19.27, 21.81 12.29" stroke="#ffffff" stroke-width="1" fill="none"></path><path d="M1.16 1.6 C0.64 3.08, -0.78 6.54, -1.01 9.95 C-1.25 13.36, -2.43 20.48, -0.25 22.07 C1.92 23.66, 9.59 21.6, 12.06 19.51 C14.52 17.43, 13.91 12.8, 14.55 9.56 C15.19 6.32, 17.72 1.56, 15.89 0.08 C14.06 -1.41, 6.53 0.83, 3.57 0.64 C0.61 0.46, -1.32 -0.96, -1.87 -1.04 M-1.65 -0.01 C-2.83 1.62, -3.73 7.91, -3.82 12.08 C-3.91 16.26, -4.77 23.58, -2.2 25.05 C0.37 26.51, 8.07 23.21, 11.6 20.87 C15.12 18.53, 18.93 14.75, 18.95 11 C18.97 7.25, 14.26 0.57, 11.72 -1.62 C9.18 -3.81, 5.11 -2.03, 3.71 -2.16 C2.31 -2.29, 4.54 -2.26, 3.33 -2.4" stroke="#000000" stroke-width="2" fill="none"></path></g></g><mask></mask><g stroke-linecap="round"><g stroke-opacity="0.8" fill-opacity="0.8" transform="translate(275.67194281837305 65.07859756452171) rotate(0 -5.259761455112937 11.78186565945316)"><path d="M-1.97 -0.18 C-0.26 5.96, -1.95 13.64, 0.05 22.96 M-0.67 -0.37 C-0.32 7.57, 0.31 15.29, -1.26 21.7 M-1.35 20.53 C-3.52 21.48, -6.71 22.32, -10.85 22.95 M-0.78 21.95 C-3.26 21.92, -6.43 23.25, -10.4 23.91" stroke="#000000" stroke-width="2" fill="none"></path></g></g><mask></mask><g stroke-linecap="round"><g stroke-opacity="0.8" fill-opacity="0.8" transform="translate(289.9784939762808 63.81625481529454) rotate(0 5.259761455112994 12.72862272137354)"><path d="M-0.17 -1.37 C-1.75 4.96, 0.68 13.44, 1.42 20.91 M0.1 0.06 C0.93 7.65, -0.51 15, 0.34 21.87 M0.44 22.18 C2.36 23.13, 4.57 23.4, 10.6 25 M0.86 22.53 C3.68 23.95, 6.46 24.58, 10.39 25.88" stroke="#000000" stroke-width="2" fill="none"></path></g></g><mask></mask><g stroke-linecap="round"><g stroke-opacity="0.8" fill-opacity="0.8" transform="translate(296.95539117201497 46.28973532231748) rotate(0 -3.4008576106535315 -2.6653583105007783)"><path d="M-0.47 -0.29 C-1.78 -1.15, -3.67 -3.65, -6.66 -5.72 M0.27 0.08 C-1.97 -1.33, -3.6 -3.05, -7.02 -5.54" stroke="#000000" stroke-width="2" fill="none"></path></g></g><mask></mask><g stroke-linecap="round"><g stroke-opacity="0.8" fill-opacity="0.8" transform="translate(275.0358645810004 41.09408532920634) rotate(0 8.649380335492538 8.498302452634562)"><path d="M0.64 1.39 C-0.97 2.21, -3.19 6.59, -8.26 17.18 M-0.59 0.23 C-2.23 4.43, -5.19 9.77, -8.42 17.02 M-8.22 15.79 C0.68 14.3, 8.43 12.67, 26.81 11 M-7.33 17.68 C0.7 15.46, 10.41 12.6, 25.2 8.42" stroke="#000000" stroke-width="2" fill="none"></path></g></g><mask></mask><g stroke-opacity="0.8" fill-opacity="0.8" transform="translate(284.81212240499485 29.707236605115213) rotate(0 0.000018460384808349772 0.000018460384808349772)" stroke="none"><path fill="#000000" d="M 1.57,-1.57 Q 1.57,-1.57 1.77,-1.27 1.98,-0.98 2.09,-0.64 2.20,-0.29 2.19,0.05 2.18,0.41 2.05,0.75 1.93,1.09 1.70,1.37 1.48,1.65 1.18,1.84 0.87,2.03 0.52,2.12 0.18,2.21 -0.17,2.18 -0.53,2.15 -0.86,2.01 -1.19,1.87 -1.46,1.63 -1.73,1.39 -1.90,1.07 -2.08,0.76 -2.15,0.41 -2.21,0.05 -2.17,-0.29 -2.12,-0.65 -1.96,-0.97 -1.80,-1.29 -1.54,-1.54 -1.29,-1.80 -0.97,-1.96 -0.65,-2.12 -0.29,-2.17 0.06,-2.21 0.41,-2.15 0.76,-2.08 1.07,-1.90 1.39,-1.73 1.63,-1.46 1.87,-1.19 2.01,-0.86 2.15,-0.53 2.18,-0.17 2.21,0.18 2.12,0.52 2.03,0.87 1.84,1.18 1.65,1.48 1.37,1.70 1.09,1.93 0.75,2.05 0.41,2.18 0.05,2.19 -0.30,2.20 -0.64,2.09 -0.98,1.98 -1.27,1.77 -1.57,1.56 -1.57,1.57 -1.57,1.57 -1.73,1.35 -1.90,1.14 -2.01,0.90 -2.12,0.66 -2.16,0.39 -2.21,0.13 -2.20,-0.13 -2.18,-0.40 -2.10,-0.65 -2.02,-0.91 -1.88,-1.14 -1.74,-1.36 -1.55,-1.55 -1.36,-1.74 -1.14,-1.88 -0.91,-2.02 -0.65,-2.10 -0.40,-2.18 -0.13,-2.20 0.13,-2.21 0.39,-2.16 0.66,-2.12 0.90,-2.01 1.14,-1.90 1.35,-1.73 1.57,-1.57 1.57,-1.57 L 1.57,-1.57 Z"></path></g><g stroke-opacity="0.8" fill-opacity="0.8" transform="translate(289.7582485561586 28.470561259983697) rotate(0 0 -0.26629717092487226)" stroke="none"><path fill="#000000" d="M 2.12,-0.66 Q 2.12,-0.66 2.15,-0.13 2.18,0.40 1.96,0.88 1.74,1.36 1.32,1.69 0.91,2.02 0.38,2.12 -0.13,2.21 -0.64,2.05 -1.14,1.90 -1.52,1.52 -1.90,1.14 -2.05,0.64 -2.21,0.13 -2.12,-0.38 -2.02,-0.91 -1.69,-1.32 -1.36,-1.74 -0.88,-1.96 -0.39,-2.18 0.13,-2.15 0.66,-2.11 1.11,-1.84 1.57,-1.56 1.84,-1.11 L 2.12,-0.66 Z"></path></g><g stroke-linecap="round"><g stroke-opacity="0.8" fill-opacity="0.8" transform="translate(291.3316197095512 33.07046412660611) rotate(25.810438890233822 -2.2359163740799772 1.2421757633778725)" fill-rule="evenodd"><path d="M-4.6 2.63 C-4.6 2.63, -4.6 2.63, -4.6 2.63 M-4.6 2.63 C-4.6 2.63, -4.6 2.63, -4.6 2.63 M-4.66 2.32 C-4.66 2.32, -4.66 2.32, -4.66 2.32 M-4.66 2.32 C-4.66 2.32, -4.66 2.32, -4.66 2.32 M-0.53 0.61 C-0.53 0.61, -0.53 0.61, -0.53 0.61 M-0.53 0.61 C-0.53 0.61, -0.53 0.61, -0.53 0.61" stroke="#ffffff" stroke-width="0.5" fill="none"></path><path d="M-0.24 -0.13 C-0.44 0.18, -0.86 1.48, -1.51 1.93 C-2.16 2.38, -3.61 2.47, -4.14 2.58 M0.29 -0.51 C0.07 -0.14, -1.02 1.81, -1.77 2.39 C-2.51 2.98, -3.7 2.93, -4.19 3.02" stroke="#000000" stroke-width="1" fill="none"></path></g></g><mask></mask><g stroke-linecap="round"><g transform="translate(298.28342789603016 39.55027201456733) rotate(0 8.712597990957988 8.991893154182435)" fill-rule="evenodd"><path d="M0 0 C0 0, 0 0, 0 0 M0 0 C0 0, 0 0, 0 0 M-1.57 7.91 C1.13 4.82, 3.88 1.68, 7.61 -2.66 M-1.57 7.91 C2.32 3.02, 5.35 -0.7, 7.61 -2.66 M-3.8 16.57 C-0.04 8.59, 7.44 3.19, 14.57 -4.56 M-3.8 16.57 C1.76 10.03, 7.15 4.48, 14.57 -4.56 M-4.72 23.72 C3.57 14.58, 10.62 8.36, 16.27 -0.43 M-4.72 23.72 C0.91 15.34, 9.41 7.96, 16.27 -0.43 M3.55 20.31 C9.3 14.52, 16.09 9.77, 21.92 -0.82 M3.55 20.31 C9.31 15.25, 12.37 8.11, 21.92 -0.82 M11.81 16.89 C13.73 15.03, 17.02 10.25, 19.03 8.59 M11.81 16.89 C14.89 13.9, 17.03 10.07, 19.03 8.59 M13.52 21.03 C14.86 19.93, 15.69 18.25, 16.8 17.25 M13.52 21.03 C14.59 19.67, 16.06 18.47, 16.8 17.25" stroke="#868e96" stroke-width="0.5" fill="none"></path><path d="M0.12 0.07 C-0.4 4.08, -4.22 20.23, -3.92 23.58 C-3.62 26.94, 0.27 20.47, 1.91 20.19 C3.56 19.91, 4.56 22.71, 5.93 21.9 C7.3 21.1, 8.8 15.46, 10.14 15.35 C11.48 15.25, 12.04 24.76, 13.99 21.27 C15.94 17.77, 21.56 -1.96, 21.86 -5.61 C22.15 -9.26, 17.23 -0.76, 15.75 -0.63 C14.28 -0.5, 14.28 -5.17, 13.02 -4.84 C11.76 -4.51, 9.35 1.07, 8.18 1.36 C7.01 1.65, 7.2 -2.8, 6 -3.1 C4.8 -3.4, 1.89 -1.15, 1.01 -0.44 M-1.28 -0.93 C-1.79 2.73, -5.22 17.87, -4.27 21.63 C-3.33 25.4, 2.68 21.53, 4.41 21.67 C6.14 21.81, 4.89 23.53, 6.13 22.47 C7.37 21.41, 10.4 15.67, 11.85 15.3 C13.29 14.93, 13.11 23.37, 14.83 20.24 C16.55 17.11, 22.22 0.09, 22.17 -3.48 C22.13 -7.05, 15.81 -0.72, 14.55 -1.17 C13.29 -1.62, 15.61 -6.51, 14.63 -6.17 C13.65 -5.83, 10.09 0.69, 8.67 0.86 C7.26 1.03, 7.56 -4.84, 6.13 -5.17 C4.7 -5.49, 0.92 -2.12, 0.12 -1.09" stroke="#000000" stroke-width="1" fill="none"></path></g></g><mask></mask><g stroke-linecap="round"><g transform="translate(295.67171243224675 50.334470616739054) rotate(0 1.6487351231128855 -1.7121480124633308)"><path d="M0.33 0.1 C0.84 -0.46, 2.58 -2.7, 3.07 -3.34 M0.08 -0.16 C0.69 -0.83, 3.26 -3.36, 3.75 -3.92" stroke="#000000" stroke-width="1" fill="none"></path></g></g><mask></mask><g stroke-linecap="round"><g transform="translate(316.0906628031066 44.75413635389532) rotate(0 0.8877804509069733 1.0146062296080345)"><path d="M-0.22 0.09 C0.01 0.36, 1.46 1.45, 1.75 1.73 M0.31 -0.18 C0.47 0.12, 1.14 1.66, 1.46 2.02" stroke="#000000" stroke-width="1" fill="none"></path></g></g><mask></mask><g stroke-linecap="round"><g transform="translate(315.3297081309006 47.163826149213946) rotate(0 1.7121480124633877 -0.3170644467525108)"><path d="M-0.03 -0.3 C0.53 -0.46, 2.63 -0.83, 3.15 -0.89 M-0.47 0.31 C0.22 0.18, 3.1 -0.47, 3.81 -0.57" stroke="#000000" stroke-width="1" fill="none"></path></g></g><mask></mask><g stroke-linecap="round"><g transform="translate(306.8814586644851 41.44969258085257) rotate(0 -2.910147693180704 9.045053640966898)"><path d="M-0.42 -0.39 C-1.47 2.7, -5.38 15.05, -6.32 18.1 M0.36 0.6 C-0.52 3.83, -4.19 15.83, -5.35 18.81" stroke="#000000" stroke-width="1" fill="none"></path></g></g><mask></mask><g stroke-linecap="round"><g transform="translate(313.80289101583367 39.562029212302605) rotate(0 -2.2809265703307915 8.101221956692143)"><path d="M-0.5 0.01 C-1.24 2.75, -4.14 13.38, -4.84 16.05 M0.24 -0.46 C-0.28 2.4, -2.86 13.83, -3.76 16.67" stroke="#000000" stroke-width="1" fill="none"></path></g></g><mask></mask><g stroke-linecap="round"><g transform="translate(265.53196100616265 34.2136932232379) rotate(0 16.73132252605859 -11.25452270637743)" fill-rule="evenodd"><path d="M-0.94 -0.15 C5.02 -3.67, 29.45 -18.06, 33.54 -20.85 C37.63 -23.65, 25.74 -17.27, 23.59 -16.95 C21.45 -16.63, 21.27 -18.2, 20.67 -18.94 C20.08 -19.68, 20.75 -20.91, 20.01 -21.38 C19.27 -21.84, 18.39 -21.4, 16.22 -21.74 C14.06 -22.08, 9.23 -23.83, 7.03 -23.43 C4.84 -23.02, 3.98 -20.59, 3.06 -19.3 C2.14 -18.01, 2.69 -16.52, 1.52 -15.68 C0.36 -14.85, -3.4 -15.53, -3.94 -14.31 C-4.48 -13.09, -2.34 -10.44, -1.71 -8.39 C-1.08 -6.33, -0.13 -3.39, -0.14 -1.99" stroke="none" stroke-width="0" fill="#fab005" fill-rule="evenodd"></path><path d="M-0.62 -0.34 C5.41 -3.86, 31.11 -18.34, 35.05 -21.09 C38.98 -23.85, 25.47 -17.23, 22.99 -16.87 C20.51 -16.52, 21.12 -18.6, 20.17 -18.98 C19.23 -19.37, 18.16 -18.52, 17.33 -19.18 C16.5 -19.84, 16.43 -22.65, 15.21 -22.94 C13.98 -23.24, 11.85 -21.68, 9.98 -20.95 C8.12 -20.22, 5.61 -19.37, 4.02 -18.56 C2.43 -17.76, 1.22 -17.12, 0.43 -16.12 C-0.35 -15.11, -0.37 -13.76, -0.7 -12.55 C-1.03 -11.35, -1.74 -10.89, -1.53 -8.91 C-1.31 -6.92, 0.17 -2.25, 0.61 -0.65 M1.26 -1.57 C7.19 -4.92, 29.88 -17.44, 33.92 -19.76 C37.96 -22.08, 27.8 -15.81, 25.5 -15.51 C23.21 -15.2, 21.17 -16.87, 20.14 -17.92 C19.11 -18.98, 20.44 -20.79, 19.33 -21.84 C18.22 -22.89, 14.88 -24.24, 13.49 -24.21 C12.1 -24.19, 12.72 -22.62, 11 -21.67 C9.28 -20.71, 4.6 -19.26, 3.14 -18.48 C1.69 -17.7, 3.3 -17.9, 2.27 -16.99 C1.25 -16.08, -2.47 -14.44, -3.01 -13.03 C-3.55 -11.61, -1.42 -10.43, -0.99 -8.49 C-0.57 -6.56, -0.36 -2.87, -0.48 -1.42" stroke="#000000" stroke-width="1" fill="none"></path></g></g><mask></mask><g stroke-linecap="round"><g transform="translate(265.4017489863861 36.417641273500976) rotate(0 4.492711679113825 -2.1237459590679464)" fill-rule="evenodd"><path d="M0 0 L8.3 -4.92 L8.99 -4.11 L0.44 0.67 L0 0" stroke="none" stroke-width="0" fill="#fa5252" fill-rule="evenodd"></path><path d="M0 0 C2.06 -1.22, 4.12 -2.44, 8.3 -4.92 M0 0 C2.43 -1.44, 4.86 -2.88, 8.3 -4.92 M8.3 -4.92 C8.52 -4.66, 8.74 -4.4, 8.99 -4.11 M8.3 -4.92 C8.44 -4.75, 8.59 -4.58, 8.99 -4.11 M8.99 -4.11 C6.75 -2.86, 4.51 -1.61, 0.44 0.67 M8.99 -4.11 C6.43 -2.69, 3.88 -1.26, 0.44 0.67 M0.44 0.67 C0.32 0.49, 0.2 0.3, 0 0 M0.44 0.67 C0.31 0.48, 0.19 0.3, 0 0 M0 0 C0 0, 0 0, 0 0 M0 0 C0 0, 0 0, 0 0" stroke="#000000" stroke-width="1" fill="none"></path></g></g><mask></mask><g stroke-linecap="round"><g transform="translate(273.8543824273859 31.402372328304864) rotate(0 1.134966501327142 0.0851895776938818)" fill-rule="evenodd"><path d="M0 0 L2.27 -0.57 L0.63 0.74" stroke="none" stroke-width="0" fill="#fab005" fill-rule="evenodd"></path><path d="M0 0 C0.62 -0.15, 1.23 -0.31, 2.27 -0.57 M0 0 C0.9 -0.23, 1.8 -0.45, 2.27 -0.57 M2.27 -0.57 C1.82 -0.21, 1.37 0.15, 0.63 0.74 M2.27 -0.57 C1.87 -0.25, 1.47 0.07, 0.63 0.74 M0.63 0.74 C0.49 0.57, 0.35 0.41, 0 0 M0.63 0.74 C0.47 0.55, 0.31 0.36, 0 0" stroke="#000000" stroke-width="1" fill="none"></path></g></g><mask></mask><g stroke-linecap="round"><g transform="translate(265.4744787123618 32.98329893842674) rotate(0 8.85896803555653 -9.182288036854288)"><path d="M0 0 C2.93 -1.88, 14.64 -8.71, 17.59 -11.25 C20.54 -13.79, 18.24 -14.25, 17.72 -15.26 C17.2 -16.27, 15.56 -16.81, 14.48 -17.33 C13.41 -17.85, 12.44 -18.19, 11.25 -18.36 C10.07 -18.54, 8.88 -18.6, 7.37 -18.36 C5.86 -18.13, 3.06 -17.18, 2.2 -16.94 M0 0 C2.93 -1.88, 14.64 -8.71, 17.59 -11.25 C20.54 -13.79, 18.24 -14.25, 17.72 -15.26 C17.2 -16.27, 15.56 -16.81, 14.48 -17.33 C13.41 -17.85, 12.44 -18.19, 11.25 -18.36 C10.07 -18.54, 8.88 -18.6, 7.37 -18.36 C5.86 -18.13, 3.06 -17.18, 2.2 -16.94" stroke="#000000" stroke-width="1" fill="none"></path></g></g><mask></mask><g transform="translate(29.6666259765625 104.38239650285686) rotate(0 20 12.5)"><text x="0" y="17.52" font-family="Virgil, Segoe UI Emoji" font-size="20px" fill="#1e1e1e" text-anchor="start" style="white-space: pre;" direction="ltr" dominant-baseline="alphabetic">老板</text></g><g transform="translate(256 103.04905299699749) rotate(0 30 12.5)"><text x="0" y="17.52" font-family="Virgil, Segoe UI Emoji" font-size="20px" fill="#1e1e1e" text-anchor="start" style="white-space: pre;" direction="ltr" dominant-baseline="alphabetic">打工人</text></g><g mask="url(#mask-jsdRQEM80FyS-eYSw-EtN)" stroke-linecap="round"><g transform="translate(50 139.04911403215374) rotate(0 0 199)"><path d="M0.71 1.2 C0.59 67.74, 0.45 332.52, 0.29 398.82 M-0.37 0.78 C-0.71 67.03, -0.37 331.06, -0.51 397.12" stroke="#2f9e44" stroke-width="2" fill="none"></path></g><g transform="translate(50 139.04911403215374) rotate(0 0 199)"><path d="M-9.05 373.63 C-3.86 383.07, -1.22 391.13, -0.51 397.12 M-9.05 373.63 C-5.24 381.68, -1.81 391, -0.51 397.12" stroke="#2f9e44" stroke-width="2" fill="none"></path></g><g transform="translate(50 139.04911403215374) rotate(0 0 199)"><path d="M8.05 373.63 C6.67 383.18, 2.75 391.23, -0.51 397.12 M8.05 373.63 C5.34 381.68, 2.25 391, -0.51 397.12" stroke="#2f9e44" stroke-width="2" fill="none"></path></g></g><mask id="mask-jsdRQEM80FyS-eYSw-EtN"><rect x="0" y="0" fill="#fff" width="150" height="637.0491140321537"></rect><rect x="10" y="325.54911403215374" fill="#000" width="80" height="25" opacity="1"></rect></mask><g transform="translate(10 325.54911403215374) rotate(0 40.09340413572704 13.297404064931925)"><text x="40" y="17.52" font-family="Virgil, Segoe UI Emoji" font-size="20px" fill="#2f9e44" text-anchor="middle" style="white-space: pre;" direction="ltr" dominant-baseline="alphabetic">开车回家</text></g><g mask="url(#mask-DNVVyYGCTylfEkcpWSC41)" stroke-linecap="round"><g transform="translate(281.33331298828125 287.7157400087167) rotate(0 0 74.33334350585938)"><path d="M-0.29 0.98 C-0.15 25.61, 0.99 124.2, 1.11 148.63 M1.76 0.44 C1.81 25.21, 1.06 125.5, 0.74 150.15" stroke="#f08c00" stroke-width="2" fill="none"></path></g><g transform="translate(281.33331298828125 287.7157400087167) rotate(0 0 74.33334350585938)"><path d="M-7.58 126.58 C-3.1 136.08, -2.09 142.54, 0.74 150.15 M-7.58 126.58 C-4.79 132.12, -4.88 136.61, 0.74 150.15" stroke="#f08c00" stroke-width="2" fill="none"></path></g><g transform="translate(281.33331298828125 287.7157400087167) rotate(0 0 74.33334350585938)"><path d="M9.52 126.74 C8.46 136.15, 3.93 142.56, 0.74 150.15 M9.52 126.74 C8.72 132.16, 5.05 136.62, 0.74 150.15" stroke="#f08c00" stroke-width="2" fill="none"></path></g></g><mask id="mask-DNVVyYGCTylfEkcpWSC41"><rect x="0" y="0" fill="#fff" width="381.33331298828125" height="536.3824270204354"></rect><rect x="212.85333251953125" y="349.54908351457607" fill="#000" width="136.9599609375" height="25" opacity="1"></rect></mask><g transform="translate(212.85333251953125 349.54908351457607) rotate(0 69.21811687492573 13.462830732064276)"><text x="68.47998046875" y="17.52" font-family="Virgil, Segoe UI Emoji" font-size="20px" fill="#f08c00" text-anchor="middle" style="white-space: pre;" direction="ltr" dominant-baseline="alphabetic">写 bug 到 1 点</text></g><g mask="url(#mask-bcZ1t3g2AHJ3x_weFrFv8)" stroke-linecap="round"><g transform="translate(52 283.04905299699794) rotate(0 113.33331298828125 2.66668701171875)"><path d="M0.4 -1.08 C38.1 -0.3, 189.38 3.5, 227.28 4.68" stroke="#f08c00" stroke-width="2.5" fill="none" stroke-dasharray="1.5 8"></path></g><g transform="translate(52 283.04905299699794) rotate(0 113.33331298828125 2.66668701171875)"><path d="M203.56 12.58 C211.06 10.42, 221.07 8.16, 227.28 4.68" stroke="#f08c00" stroke-width="2.5" fill="none" stroke-dasharray="1.5 6"></path></g><g transform="translate(52 283.04905299699794) rotate(0 113.33331298828125 2.66668701171875)"><path d="M204.03 -4.52 C211.34 0.03, 221.17 4.47, 227.28 4.68" stroke="#f08c00" stroke-width="2.5" fill="none" stroke-dasharray="1.5 6"></path></g></g><mask id="mask-bcZ1t3g2AHJ3x_weFrFv8"><rect x="0" y="0" fill="#fff" width="378.6666259765625" height="388.38242702043544"></rect><rect x="125.33331298828125" y="273.2157400087167" fill="#000" width="80" height="25" opacity="1"></rect></mask><g transform="translate(125.33331298828125 273.2157400087167) rotate(0 40.50577635541555 11.63045226559052)"><text x="40" y="17.52" font-family="Virgil, Segoe UI Emoji" font-size="20px" fill="#f08c00" text-anchor="middle" style="white-space: pre;" direction="ltr" dominant-baseline="alphabetic">要你加班</text></g><g mask="url(#mask-HUVK3aKUVZ8WXeiDEyJFe)" stroke-linecap="round"><g transform="translate(274 435.7157400087167) rotate(0 -110 0)"><path d="M1.11 0.67 C-35.84 0.8, -184.16 0.25, -221.09 0.13" stroke="#f08c00" stroke-width="2.5" fill="none" stroke-dasharray="1.5 8"></path></g><g transform="translate(274 435.7157400087167) rotate(0 -110 0)"><path d="M-197.56 -8.34 C-204.75 -6.96, -213.9 -2.95, -221.09 0.13" stroke="#f08c00" stroke-width="2.5" fill="none" stroke-dasharray="1.5 6"></path></g><g transform="translate(274 435.7157400087167) rotate(0 -110 0)"><path d="M-197.62 8.76 C-204.69 4.14, -213.83 2.15, -221.09 0.13" stroke="#f08c00" stroke-width="2.5" fill="none" stroke-dasharray="1.5 6"></path></g></g><mask id="mask-HUVK3aKUVZ8WXeiDEyJFe"><rect x="0" y="0" fill="#fff" width="594" height="535.7157400087167"></rect><rect x="103.15000915527344" y="423.2157400087167" fill="#000" width="121.69998168945312" height="25" opacity="1"></rect></mask><g transform="translate(103.15000915527344 423.2157400087167) rotate(0 60.86317472234367 12.908995490694906)"><text x="60.84999084472656" y="17.52" font-family="Virgil, Segoe UI Emoji" font-size="20px" fill="#2f9e44" text-anchor="middle" style="white-space: pre;" direction="ltr" dominant-baseline="alphabetic">发 vx 给老板</text></g><g stroke-linecap="round"><g transform="translate(38.99367692797955 45.70266392361191) rotate(0 -2.03545074797114 -4.445852949515938)" fill-rule="evenodd"><path d="M-0.98 -0.42 C-1.09 -0.29, 0.02 0.07, -0.04 0.24 C-0.1 0.41, -0.82 1.47, -1.36 0.63 C-1.9 -0.21, -2.67 -3.09, -3.28 -4.78 C-3.89 -6.47, -5.27 -8.93, -5.01 -9.52 C-4.74 -10.1, -2.38 -8.62, -1.7 -8.29 C-1.03 -7.96, -1.06 -7.66, -0.94 -7.51 C-0.82 -7.37, -1.22 -8.42, -0.99 -7.43 C-0.77 -6.43, 0.23 -2.84, 0.42 -1.55" stroke="none" stroke-width="0" fill="#564540" fill-rule="evenodd"></path><path d="M0.2 -0.01 C0.11 0.13, -0.33 0.97, -0.75 0.95 C-1.18 0.93, -1.8 0.9, -2.37 -0.12 C-2.94 -1.14, -3.81 -3.87, -4.17 -5.19 C-4.53 -6.51, -4.82 -7.29, -4.53 -8.03 C-4.24 -8.77, -3.03 -9.67, -2.42 -9.63 C-1.82 -9.6, -1.2 -8.32, -0.88 -7.81 C-0.57 -7.31, -0.73 -7.85, -0.55 -6.61 C-0.37 -5.37, 0.05 -1.48, 0.18 -0.38 M-0.37 -0.49 C-0.47 -0.27, -0.59 1.47, -0.97 1.64 C-1.34 1.81, -2.07 1.62, -2.62 0.53 C-3.17 -0.57, -4.08 -3.53, -4.27 -4.93 C-4.46 -6.32, -3.93 -7.01, -3.76 -7.85 C-3.6 -8.7, -3.79 -9.92, -3.26 -9.99 C-2.74 -10.07, -0.99 -8.87, -0.6 -8.31 C-0.22 -7.75, -0.99 -8.1, -0.97 -6.64 C-0.95 -5.18, -0.76 -0.61, -0.49 0.45" stroke="#000000" stroke-width="1" fill="none"></path></g></g><mask></mask><g stroke-linecap="round"><g transform="translate(36.79462223211442 42.50262119354693) rotate(0 0.051015498960225614 -1.9896044594504474)" fill-rule="evenodd"><path d="M0.36 -1.32 C0.54 -1.14, 0.75 0.17, 0.79 0.59 C0.82 1.01, 0.34 1.3, 0.57 1.19 C0.8 1.09, 2.27 0.06, 2.17 -0.04 C2.07 -0.14, 0.11 0.7, -0.03 0.6 C-0.17 0.51, 1.23 -0.04, 1.33 -0.61 C1.43 -1.19, 0.67 -2.29, 0.55 -2.83 C0.43 -3.37, 0.64 -3.52, 0.59 -3.83 C0.54 -4.15, 0.24 -4.37, 0.24 -4.74 C0.25 -5.1, 0.82 -5.87, 0.61 -6.02 C0.4 -6.17, -0.61 -5.7, -1.01 -5.63 C-1.42 -5.56, -1.83 -6.05, -1.84 -5.6 C-1.86 -5.15, -1.42 -3.61, -1.1 -2.95 C-0.79 -2.3, -0.26 -2.27, 0.05 -1.66 C0.36 -1.06, 0.58 -0.06, 0.75 0.66 C0.91 1.39, 1.16 2.61, 1.05 2.67" stroke="none" stroke-width="0" fill="#564540" fill-rule="evenodd"></path><path d="M0.27 -0.01 C0.38 0.06, 0.72 0.3, 0.77 0.4 C0.83 0.5, 0.55 0.62, 0.61 0.61 C0.68 0.61, 1.1 0.51, 1.17 0.38 C1.24 0.24, 1.12 0.04, 1.05 -0.2 C0.98 -0.43, 0.71 -0.76, 0.77 -1.05 C0.82 -1.33, 1.27 -1.52, 1.35 -1.92 C1.44 -2.32, 1.39 -3.08, 1.27 -3.44 C1.15 -3.81, 0.8 -3.79, 0.62 -4.09 C0.43 -4.38, 0.43 -4.96, 0.17 -5.21 C-0.09 -5.47, -0.71 -5.72, -0.93 -5.6 C-1.14 -5.48, -1.11 -5.06, -1.11 -4.51 C-1.12 -3.96, -1.04 -2.97, -0.96 -2.3 C-0.88 -1.63, -0.64 -0.96, -0.61 -0.49 C-0.59 -0.02, -0.94 0.14, -0.82 0.53 C-0.69 0.92, 0.02 1.68, 0.13 1.87 M-0.01 -0.32 C0.05 -0.37, 0.34 -0.38, 0.56 -0.19 C0.78 0, 1.23 0.69, 1.32 0.84 C1.41 0.99, 1.19 0.84, 1.09 0.7 C0.99 0.56, 0.72 0.32, 0.74 -0.01 C0.75 -0.34, 1.03 -0.91, 1.17 -1.28 C1.31 -1.65, 1.6 -1.83, 1.57 -2.23 C1.55 -2.63, 1.26 -3.29, 1.03 -3.67 C0.8 -4.05, 0.29 -4.21, 0.2 -4.5 C0.1 -4.79, 0.66 -5.26, 0.47 -5.4 C0.28 -5.55, -0.63 -5.47, -0.94 -5.36 C-1.25 -5.24, -1.43 -5.2, -1.4 -4.71 C-1.37 -4.23, -0.87 -3.14, -0.76 -2.45 C-0.65 -1.75, -0.76 -1.18, -0.77 -0.55 C-0.78 0.07, -0.86 0.96, -0.82 1.27 C-0.78 1.59, -0.57 1.23, -0.52 1.34" stroke="#00000066" stroke-width="1" fill="none"></path></g></g><mask></mask><g stroke-linecap="round"><g transform="translate(64.49037577098613 37.56086093172735) rotate(0 1.1784188540885339 2.463966694912415)" fill-rule="evenodd"><path d="M1.14 -0.72 C1.7 -0.94, 2.06 -1.58, 2.39 -1.72 C2.73 -1.87, 3.26 -2.05, 3.15 -1.57 C3.04 -1.09, 1.75 -0.34, 1.74 1.16 C1.72 2.66, 3.17 6.31, 3.05 7.44 C2.93 8.56, 1.65 8, 1.03 7.91 C0.41 7.83, -0.57 8.51, -0.67 6.93 C-0.77 5.35, 0.28 -0.45, 0.42 -1.55" stroke="none" stroke-width="0" fill="#564540" fill-rule="evenodd"></path><path d="M0.2 0.09 C0.25 -0.41, 0.42 -2.78, 0.76 -3.04 C1.1 -3.31, 1.84 -2.48, 2.22 -1.5 C2.6 -0.51, 3.08 1.6, 3.03 2.86 C2.99 4.13, 2.25 5.3, 1.94 6.09 C1.64 6.89, 1.56 7.46, 1.21 7.63 C0.86 7.8, 0.02 8.39, -0.14 7.12 C-0.31 5.84, 0.16 1.2, 0.22 -0.01 M-0.37 -0.33 C-0.18 -0.78, 1.16 -2.49, 1.78 -2.59 C2.39 -2.68, 3.05 -1.63, 3.31 -0.9 C3.56 -0.16, 3.67 0.6, 3.33 1.81 C2.99 3.03, 1.5 5.47, 1.26 6.38 C1.02 7.3, 2.07 7.02, 1.9 7.29 C1.73 7.55, 0.58 9.21, 0.24 7.97 C-0.1 6.73, -0.03 1.03, -0.14 -0.17" stroke="#000000" stroke-width="1" fill="none"></path></g></g><mask></mask><g stroke-linecap="round"><g transform="translate(66.07751863530757 41.41429054906075) rotate(0 -0.4251291580022212 -1.7855424636093176)" fill-rule="evenodd"><path d="M0.36 -1.32 C0.37 -1.06, 0.02 0.71, -0.23 1.07 C-0.49 1.43, -1.06 0.91, -1.17 0.85 C-1.27 0.8, -0.7 0.71, -0.89 0.74 C-1.07 0.78, -2.37 1.19, -2.28 1.04 C-2.19 0.9, -0.35 0.48, -0.34 -0.14 C-0.33 -0.76, -1.98 -2.01, -2.24 -2.66 C-2.5 -3.3, -2.17 -3.47, -1.9 -4 C-1.62 -4.54, -1.01 -5.52, -0.57 -5.86 C-0.13 -6.2, 0.64 -6.35, 0.75 -6.05 C0.86 -5.75, 0.19 -4.55, 0.11 -4.07 C0.03 -3.59, 0.14 -3.73, 0.27 -3.15 C0.39 -2.57, 0.74 -1.17, 0.87 -0.57 C1 0.03, 0.94 0.11, 1.07 0.45" stroke="none" stroke-width="0" fill="#564540" fill-rule="evenodd"></path><path d="M-0.27 -0.31 C-0.4 -0.18, -0.61 0.65, -0.67 0.82 C-0.73 0.99, -0.46 0.64, -0.62 0.72 C-0.78 0.8, -1.49 1.38, -1.62 1.3 C-1.74 1.22, -1.51 0.64, -1.37 0.26 C-1.23 -0.12, -0.77 -0.6, -0.77 -0.96 C-0.77 -1.32, -1.29 -1.49, -1.36 -1.91 C-1.43 -2.33, -1.32 -2.92, -1.19 -3.48 C-1.06 -4.04, -0.82 -4.99, -0.55 -5.29 C-0.29 -5.6, 0.21 -5.55, 0.42 -5.29 C0.62 -5.04, 0.6 -4.32, 0.67 -3.76 C0.74 -3.2, 0.87 -2.48, 0.85 -1.92 C0.83 -1.36, 0.6 -1.07, 0.54 -0.42 C0.49 0.23, 0.58 1.61, 0.54 1.97 M0.24 0.3 C0.2 0.49, 0.14 1.3, -0.02 1.27 C-0.18 1.24, -0.47 0.22, -0.72 0.11 C-0.98 0, -1.38 0.56, -1.55 0.62 C-1.73 0.68, -1.8 0.61, -1.77 0.46 C-1.74 0.3, -1.48 0.14, -1.37 -0.32 C-1.26 -0.78, -1.09 -1.76, -1.1 -2.31 C-1.11 -2.86, -1.59 -3.24, -1.42 -3.64 C-1.25 -4.03, -0.26 -4.36, -0.08 -4.67 C0.11 -4.98, -0.47 -5.54, -0.3 -5.51 C-0.14 -5.47, 0.77 -5.03, 0.9 -4.45 C1.03 -3.88, 0.55 -2.83, 0.49 -2.05 C0.42 -1.27, 0.51 -0.45, 0.51 0.24 C0.5 0.93, 0.48 1.86, 0.45 2.09" stroke="#00000066" stroke-width="1" fill="none"></path></g></g><mask></mask><g stroke-linecap="round"><g transform="translate(51.80347205465921 46.78179249731147) rotate(0 -1.1827250342794287 14.30171972916537)" fill-rule="evenodd"><path d="M-0.52 -0.85 C-1.95 -0.13, -6.24 2.49, -8.69 5.07 C-11.14 7.66, -12.59 12.42, -15.22 14.66 C-17.85 16.9, -24.38 16.9, -24.47 18.53 C-24.57 20.17, -18.48 22.52, -15.77 24.46 C-13.07 26.4, -12.25 29.3, -8.24 30.16 C-4.24 31.02, 4.28 30.9, 8.25 29.62 C12.21 28.34, 13.48 24.68, 15.53 22.47 C17.58 20.27, 20.65 18.1, 20.55 16.39 C20.45 14.69, 16.68 13.92, 14.91 12.24 C13.14 10.56, 12.48 8.39, 9.91 6.32 C7.34 4.24, 1.26 1.2, -0.53 -0.22" stroke="none" stroke-width="0" fill="#564540" fill-rule="evenodd"></path><path d="M-0.99 0.01 C-2.26 1.49, -6.11 5.43, -8.53 7.88 C-10.96 10.32, -13 12.91, -15.53 14.7 C-18.06 16.49, -23.53 16.98, -23.71 18.59 C-23.9 20.2, -19.54 22.7, -16.63 24.35 C-13.73 26, -10.34 27.83, -6.28 28.47 C-2.21 29.12, 4.02 29.06, 7.75 28.23 C11.48 27.4, 13.68 25.37, 16.12 23.49 C18.56 21.62, 22.37 18.57, 22.39 16.99 C22.4 15.41, 18.4 15.53, 16.21 14.01 C14.02 12.49, 12.05 10.39, 9.24 7.88 C6.42 5.36, 0.72 0.04, -0.69 -1.09 M0.69 -1.03 C-0.59 0.18, -6.23 3.73, -9.07 6.01 C-11.9 8.28, -13.94 10.89, -16.32 12.61 C-18.7 14.33, -23.1 14.37, -23.36 16.31 C-23.62 18.26, -20.41 22.45, -17.9 24.3 C-15.39 26.15, -12.7 26.41, -8.28 27.42 C-3.85 28.43, 4.19 31.08, 8.63 30.34 C13.07 29.6, 16.29 24.89, 18.37 22.99 C20.46 21.1, 21.92 20.5, 21.15 18.98 C20.39 17.47, 15.69 15.58, 13.78 13.88 C11.88 12.19, 11.83 10.89, 9.74 8.84 C7.64 6.79, 2.58 2.9, 1.2 1.58" stroke="#000000" stroke-width="1" fill="none"></path></g></g><mask></mask><g stroke-linecap="round"><g transform="translate(52.21482112057731 58.62911388783732) rotate(0 -1.1155686915057004 -19.99568961787395)" fill-rule="evenodd"><path d="M0.63 -2.32 C0.2 -1.95, -1.56 1.19, -3.11 1.33 C-4.65 1.47, -7.16 0.93, -8.62 -1.46 C-10.08 -3.85, -10.62 -8.14, -11.86 -13 C-13.11 -17.87, -17.01 -26.17, -16.11 -30.65 C-15.21 -35.13, -9.72 -37.97, -6.48 -39.86 C-3.23 -41.76, 0.39 -43.21, 3.36 -41.99 C6.34 -40.78, 10.09 -37.5, 11.38 -32.57 C12.66 -27.64, 11.77 -17.28, 11.07 -12.42 C10.38 -7.55, 8.72 -5.55, 7.19 -3.39 C5.66 -1.23, 3.23 0.35, 1.89 0.55 C0.56 0.74, -0.57 -1.97, -0.85 -2.19" stroke="none" stroke-width="0" fill="#564540" fill-rule="evenodd"></path><path d="M0.79 0.48 C0.38 0.71, -1.97 1.68, -3.41 1.37 C-4.85 1.05, -6.31 1.01, -7.86 -1.41 C-9.41 -3.82, -11.68 -7.96, -12.72 -13.11 C-13.77 -18.27, -15.1 -27.64, -14.14 -32.33 C-13.18 -37.02, -9.99 -39.82, -6.97 -41.26 C-3.96 -42.7, 0.59 -42.51, 3.95 -40.97 C7.32 -39.42, 11.81 -37.04, 13.22 -31.98 C14.62 -26.93, 13.49 -15.67, 12.37 -10.64 C11.26 -5.62, 8.29 -3.55, 6.51 -1.83 C4.74 -0.11, 2.69 -0.82, 1.74 -0.32 C0.78 0.17, 1.09 1.03, 0.79 1.15 M-0.26 -0.31 C-0.74 -0.44, -3.01 0.03, -4.39 -0.5 C-5.76 -1.03, -7.2 -1.48, -8.52 -3.47 C-9.83 -5.46, -11.13 -7.7, -12.27 -12.45 C-13.41 -17.2, -15.91 -26.95, -15.36 -31.95 C-14.81 -36.96, -12.24 -40.74, -8.98 -42.49 C-5.71 -44.25, 0.62 -44.12, 4.22 -42.47 C7.82 -40.83, 11.47 -37.73, 12.63 -32.6 C13.79 -27.47, 12.03 -16.75, 11.17 -11.7 C10.31 -6.65, 9.04 -4.27, 7.46 -2.31 C5.88 -0.34, 2.98 -0.51, 1.7 0.09 C0.42 0.7, 0.06 1.38, -0.2 1.33" stroke="#000000" stroke-width="1" fill="none"></path></g></g><mask></mask><g stroke-linecap="round"><g transform="translate(39.081569485091336 44.95799312568397) rotate(0 2.9822600005521736 5.913341055613955)" fill-rule="evenodd"><path d="M-0.94 -1.48 C-0.45 -0.8, 2.35 2.31, 3.38 4.03 C4.41 5.75, 4.86 7.64, 5.24 8.84 C5.61 10.05, 5.85 11.6, 5.61 11.26 C5.38 10.91, 4.62 8.1, 3.81 6.77 C3.01 5.45, 1.49 4.4, 0.79 3.32 C0.1 2.25, -0.38 0.96, -0.37 0.32" stroke="none" stroke-width="0" fill="#00000022" fill-rule="evenodd"></path><path d="M-0.03 0.22 C0.31 0.64, 1.47 1.42, 2.39 2.71 C3.31 4, 4.87 6.42, 5.5 7.94 C6.13 9.45, 6.5 11.78, 6.18 11.82 C5.87 11.85, 4.58 9.64, 3.6 8.15 C2.62 6.66, 0.84 4.29, 0.3 2.89 C-0.24 1.49, 0.36 0.19, 0.38 -0.24 M-0.7 -0.14 C-0.46 0.09, 1.02 0.46, 2.01 1.87 C3 3.28, 4.51 6.6, 5.24 8.34 C5.97 10.08, 6.77 12.33, 6.4 12.31 C6.04 12.3, 3.98 9.9, 3.04 8.24 C2.11 6.58, 1.41 3.6, 0.77 2.34 C0.14 1.08, -0.69 1.03, -0.79 0.68" stroke="#00000044" stroke-width="1" fill="none"></path></g></g><mask></mask><g stroke-linecap="round"><g transform="translate(63.74481044449249 46.49518083349085) rotate(0 -2.925880116301755 5.318379291732754)" fill-rule="evenodd"><path d="M-0.94 -1.48 C-1.35 -0.86, -1.28 1.92, -2.02 3.66 C-2.76 5.4, -4.69 7.89, -5.39 8.96 C-6.08 10.02, -6.89 11, -6.2 10.07 C-5.52 9.13, -2.35 4.99, -1.28 3.36 C-0.22 1.73, 0.01 0.8, 0.16 0.3" stroke="none" stroke-width="0" fill="#00000022" fill-rule="evenodd"></path><path d="M0.09 0.25 C-0.39 0.49, -2.06 0.35, -2.92 1.71 C-3.79 3.07, -4.63 6.96, -5.09 8.42 C-5.54 9.88, -6.15 11.07, -5.64 10.46 C-5.13 9.85, -3.04 6.55, -2.03 4.77 C-1.03 2.98, -0.02 0.5, 0.38 -0.24 M-0.52 -0.1 C-1.06 0.19, -2.46 0.69, -3.26 2.21 C-4.06 3.73, -4.96 7.57, -5.32 9.02 C-5.68 10.46, -6.1 11.57, -5.42 10.88 C-4.73 10.19, -2.04 6.55, -1.21 4.88 C-0.38 3.2, -0.52 1.67, -0.44 0.82" stroke="#00000044" stroke-width="1" fill="none"></path></g></g><mask></mask><g stroke-linecap="round"><g transform="translate(48.93855431246379 39.835296110140916) rotate(0 -1.9078905280361482 1.2946400011674086)" fill-rule="evenodd"><path d="M1.03 0.72 C0.66 1.18, -0.3 2.07, -1.24 2.17 C-2.18 2.27, -4.33 1.04, -4.61 1.33" stroke="none" stroke-width="0" fill="#00000022" fill-rule="evenodd"></path><path d="M0.12 -0.25 C-0.14 0.1, -0.86 1.76, -1.5 2.22 C-2.13 2.67, -3.26 2.43, -3.68 2.48 M-0.25 0.39 C-0.55 0.78, -1.11 2.26, -1.7 2.67 C-2.3 3.07, -3.44 2.79, -3.83 2.81" stroke="#00000044" stroke-width="1" fill="none"></path></g></g><mask></mask><g stroke-linecap="round"><g transform="translate(48.68657194889488 39.30982673797189) rotate(0 -3.1983826347427 2.059601595076856)" fill-rule="evenodd"><path d="M0.14 0.25 C0.07 0.64, -0.04 0.84, -0.03 1.04 C-0.02 1.24, 0.6 1.01, 0.22 1.44 C-0.16 1.88, -1.48 3.04, -2.31 3.66 C-3.14 4.27, -3.97 5.6, -4.76 5.11 C-5.56 4.62, -6.66 1.66, -7.07 0.71 C-7.49 -0.23, -7.87 -0.28, -7.25 -0.57 C-6.64 -0.87, -4.69 -1.02, -3.38 -1.07 C-2.08 -1.13, 0.07 -1.07, 0.58 -0.91" stroke="none" stroke-width="0" fill="#00000022" fill-rule="evenodd"></path><path d="M0.14 -0.01 C0.19 0.14, 0.56 0.36, 0.42 0.65 C0.28 0.95, -0.43 1.45, -0.7 1.77 C-0.97 2.08, -0.49 2.06, -1.21 2.56 C-1.94 3.05, -4.21 4.9, -5.04 4.72 C-5.88 4.54, -5.92 2.28, -6.23 1.45 C-6.54 0.62, -7.44 0, -6.88 -0.26 C-6.33 -0.51, -4.06 -0.14, -2.92 -0.08 C-1.77 -0.01, -0.49 0.12, -0.02 0.11 M-0.22 -0.32 C-0.21 -0.1, 0.17 0.64, 0.21 1.05 C0.26 1.45, 0.24 1.81, 0.04 2.11 C-0.17 2.4, -0.12 2.33, -1.01 2.8 C-1.91 3.27, -4.37 5.2, -5.34 4.93 C-6.31 4.65, -6.6 1.92, -6.84 1.14 C-7.08 0.36, -7.42 0.45, -6.8 0.26 C-6.18 0.07, -4.14 0.08, -3.1 0 C-2.05 -0.09, -1.05 -0.18, -0.52 -0.23" stroke="#00000044" stroke-width="1" fill="none"></path></g></g><mask></mask><g stroke-linecap="round"><g transform="translate(54.59592387453506 39.51731435546844) rotate(0 2.1384996956496707 1.3662582914446375)" fill-rule="evenodd"><path d="M-0.79 -1.26 C-0.53 -0.77, 1.18 2.11, 2.01 2.85 C2.85 3.58, 3.88 3.28, 4.21 3.18" stroke="none" stroke-width="0" fill="#00000022" fill-rule="evenodd"></path><path d="M0.14 -0.11 C0.26 0.13, 0.15 0.98, 0.88 1.43 C1.61 1.87, 3.91 2.33, 4.52 2.58 M-0.22 -0.48 C0.01 -0.18, 0.79 1.27, 1.57 1.83 C2.34 2.39, 3.9 2.81, 4.43 2.88" stroke="#00000044" stroke-width="1" fill="none"></path></g></g><mask></mask><g stroke-linecap="round"><g transform="translate(55.26929806905025 38.944090373355266) rotate(0 2.5056462696225026 1.7365532133160286)" fill-rule="evenodd"><path d="M0.14 0.25 C-0.12 0.6, -1.44 0.51, -1.21 0.77 C-0.98 1.03, 0.89 1.16, 1.53 1.8 C2.17 2.44, 1.88 4.26, 2.63 4.61 C3.37 4.95, 5.57 4.8, 6 3.87 C6.42 2.95, 6.26 -0.19, 5.17 -0.95 C4.07 -1.7, 0.33 -0.69, -0.57 -0.64" stroke="none" stroke-width="0" fill="#00000022" fill-rule="evenodd"></path><path d="M-0.21 -0.09 C-0.34 -0.01, -0.87 -0.07, -0.65 0.34 C-0.43 0.75, 0.38 1.85, 1.08 2.4 C1.79 2.95, 2.89 3.55, 3.58 3.65 C4.27 3.75, 4.82 3.56, 5.25 2.98 C5.68 2.39, 7.02 0.62, 6.14 0.15 C5.27 -0.33, 1.02 0.16, -0.02 0.11 M0.32 -0.44 C0.16 -0.31, -0.91 0.34, -0.8 0.71 C-0.69 1.08, 0.24 1.26, 0.99 1.8 C1.74 2.35, 2.9 3.78, 3.7 3.97 C4.5 4.15, 5.47 3.58, 5.79 2.93 C6.1 2.27, 6.54 0.54, 5.6 0.02 C4.67 -0.51, 1.16 -0.17, 0.16 -0.22" stroke="#00000044" stroke-width="1" fill="none"></path></g></g><mask></mask><g stroke-linecap="round"><g transform="translate(55.78331661413995 48.07501396466159) rotate(0 1.3633654044830337 2.245256773990832)" fill-rule="evenodd"><path d="M-0.07 0.44 C-0.08 0.35, 0.31 0.31, 0.84 0.76 C1.36 1.22, 2.74 2.51, 3.08 3.17" stroke="none" stroke-width="0" fill="#fab005" fill-rule="evenodd"></path><path d="M0.25 -0.16 C0.52 0.1, 0.97 0.66, 1.4 1.43 C1.83 2.2, 2.64 4.02, 2.83 4.48 M-0.05 0.53 C0.21 0.69, 0.8 0.18, 1.25 0.9 C1.7 1.62, 2.45 4.28, 2.66 4.85" stroke="#00000044" stroke-width="1" fill="none"></path></g></g><mask></mask><g stroke-linecap="round"><g transform="translate(48.24260643190178 48.256717824474435) rotate(0 -1.4021343870471128 2.465729616367753)" fill-rule="evenodd"><path d="M-0.3 -0.48 C-0.45 -0.53, -0.56 -0.81, -0.96 0.14 C-1.35 1.08, -2.3 4.34, -2.67 5.18" stroke="none" stroke-width="0" fill="#fab005" fill-rule="evenodd"></path><path d="M0.26 0.18 C0.02 0.45, -0.67 0.7, -1.21 1.44 C-1.76 2.18, -2.78 3.97, -3.01 4.61 M-0.03 -0.03 C-0.33 0.31, -0.89 1.07, -1.44 1.88 C-1.99 2.69, -3.18 4.36, -3.34 4.83" stroke="#00000044" stroke-width="1" fill="none"></path></g></g><mask></mask><g stroke-linecap="round"><g transform="translate(50.74651857494803 56.108752778996404) rotate(0 1.396357088486468 -0.24651431604820573)" fill-rule="evenodd"><path d="M0.36 -1.32 C0.66 -1.28, 1.14 -0.48, 1.5 -0.24 C1.85 0, 2.14 0.18, 2.48 0.13" stroke="none" stroke-width="0" fill="#fab005" fill-rule="evenodd"></path><path d="M0.1 -0.01 C0.25 -0.18, 0.67 -0.85, 1.15 -0.81 C1.64 -0.78, 2.76 0.07, 3.03 0.2 M-0.27 -0.33 C-0.03 -0.48, 1.31 -0.53, 1.85 -0.53 C2.38 -0.53, 2.76 -0.46, 2.92 -0.32" stroke="#00000044" stroke-width="1" fill="none"></path></g></g><mask></mask><g stroke-linecap="round"><g transform="translate(42.63663315317217 55.165854318701804) rotate(0 8.456251747243414 4.7712245762709244)" fill-rule="evenodd"><path d="M-0.87 -0.89 C-0.68 0.1, 0.09 4.94, 1.78 6.61 C3.47 8.29, 7.05 9.24, 9.27 9.18 C11.5 9.13, 13.93 7.64, 15.14 6.29 C16.35 4.94, 17.09 1.65, 16.56 1.08 C16.03 0.51, 13.85 2.48, 11.98 2.86 C10.1 3.24, 7.13 4.15, 5.32 3.37 C3.5 2.59, 1.68 -1.14, 1.09 -1.81" stroke="none" stroke-width="0" fill="#00000044" fill-rule="evenodd"></path><path d="M-0.31 -0.5 C0.13 0.82, 1.18 6.12, 2.82 7.89 C4.46 9.66, 7.6 10.25, 9.52 10.13 C11.44 10.01, 13.08 8.74, 14.34 7.17 C15.6 5.6, 17.34 1.16, 17.05 0.71 C16.76 0.25, 14.6 3.88, 12.6 4.43 C10.6 4.98, 7.07 4.87, 5.05 4.03 C3.03 3.2, 1.33 0.1, 0.47 -0.58 M0.53 0.44 C0.91 1.62, 1.14 5.74, 2.57 7.2 C4.01 8.65, 7.19 9.09, 9.16 9.16 C11.13 9.22, 13.17 9, 14.39 7.58 C15.61 6.15, 16.64 1.21, 16.46 0.62 C16.27 0.02, 15.13 3.53, 13.27 4.01 C11.41 4.48, 7.46 4.28, 5.28 3.48 C3.09 2.67, 0.93 -0.16, 0.15 -0.82" stroke="#00000044" stroke-width="1" fill="none"></path></g></g><mask></mask><g stroke-linecap="round"><g transform="translate(45.709439870788515 58.02201379609869) rotate(0 3.0240588002627646 7.164563165758636)"><path d="M0.36 0.53 C1.06 1.71, 3.25 4.96, 3.84 6.59 C4.42 8.23, 3.49 9.12, 3.88 10.32 C4.28 11.52, 5.82 13.12, 6.19 13.81 M-0.11 0.32 C0.53 1.38, 2.79 3.97, 3.39 5.72 C3.99 7.47, 2.98 9.43, 3.48 10.82 C3.97 12.21, 6.04 13.4, 6.37 14.04" stroke="#00000044" stroke-width="1" fill="none"></path></g></g><mask></mask><g stroke-linecap="round"><g transform="translate(59.644791248139654 55.84408417284703) rotate(0 -3.125269945131265 9.412852813699828)"><path d="M-0.03 0.18 C-0.51 1.1, -2.01 4.34, -2.55 6.09 C-3.09 7.84, -2.84 9.28, -3.25 10.67 C-3.65 12.06, -4.76 13.05, -4.97 14.42 C-5.17 15.8, -4.3 18.34, -4.47 18.93 C-4.63 19.53, -5.62 18.05, -5.97 17.98 M-0.71 -0.21 C-1.3 1.03, -2.57 4.82, -3.04 6.69 C-3.51 8.56, -3.22 9.62, -3.52 11 C-3.82 12.38, -4.83 13.62, -4.83 14.98 C-4.83 16.34, -3.2 18.76, -3.53 19.17 C-3.87 19.57, -6.36 17.6, -6.85 17.42" stroke="#00000044" stroke-width="1" fill="none"></path></g></g><mask></mask><g stroke-linecap="round"><g transform="translate(37.37922917693447 37.673692052928345) rotate(0 3.8460696876704787 9.024438025318204)" fill-rule="evenodd"><path d="M-0.27 -0.77 C0.03 0.26, 0.83 3.14, 1.19 5.46 C1.54 7.77, 1.17 11.25, 1.86 13.13 C2.55 15.01, 4.32 17.12, 5.31 16.73 C6.31 16.34, 8.15 12.65, 7.84 10.81 C7.52 8.97, 4.31 7.55, 3.42 5.69 C2.53 3.83, 2.7 0.38, 2.51 -0.37" stroke="none" stroke-width="0" fill="#4c463e" fill-rule="evenodd"></path><path d="M-0.12 -0.19 C-0.01 0.78, 0.25 3.75, 0.64 6.02 C1.04 8.28, 1.41 11.32, 2.27 13.37 C3.12 15.42, 4.81 18.67, 5.76 18.31 C6.71 17.95, 8.57 13.01, 7.97 11.2 C7.38 9.39, 3.32 9.32, 2.18 7.46 C1.04 5.61, 1.38 1.4, 1.12 0.08 M0.82 -0.76 C0.88 0.24, 0.1 3.98, 0.28 6.45 C0.47 8.91, 1.03 11.95, 1.95 14.02 C2.87 16.09, 4.89 19.32, 5.81 18.87 C6.72 18.41, 7.97 13.24, 7.45 11.29 C6.92 9.34, 3.64 9.13, 2.65 7.18 C1.66 5.23, 1.69 0.9, 1.52 -0.42" stroke="#000000" stroke-width="1" fill="none"></path></g></g><mask></mask><g stroke-linecap="round"><g transform="translate(64.81319639711978 37.15391854186646) rotate(0 -3.2958087358481407 9.536423748935704)" fill-rule="evenodd"><path d="M0.68 -1.08 C0.51 0.76, -0.56 7.69, -1.29 10.27 C-2.01 12.86, -2.95 13.04, -3.65 14.42 C-4.36 15.79, -5.17 19.07, -5.51 18.52 C-5.85 17.97, -6.43 12.99, -5.69 11.14 C-4.95 9.29, -2.07 9, -1.07 7.4 C-0.06 5.81, 0.31 2.87, 0.36 1.57" stroke="none" stroke-width="0" fill="#4c463e" fill-rule="evenodd"></path><path d="M0.14 -0.52 C0.01 1.26, -0.32 7.77, -0.88 10.52 C-1.44 13.27, -2.46 14.59, -3.21 15.99 C-3.96 17.39, -4.76 19.42, -5.37 18.91 C-5.99 18.4, -7.41 14.76, -6.93 12.91 C-6.44 11.07, -3.39 10.01, -2.45 7.85 C-1.51 5.68, -1.5 1.24, -1.29 -0.07 M-0.45 0.4 C-0.63 2.03, -0.75 6.89, -1.28 9.6 C-1.81 12.31, -2.98 15.03, -3.62 16.65 C-4.26 18.27, -4.7 19.89, -5.12 19.33 C-5.53 18.77, -6.4 15.25, -6.1 13.28 C-5.81 11.31, -4.19 9.57, -3.36 7.49 C-2.54 5.42, -1.41 2.13, -1.15 0.83" stroke="#000000" stroke-width="1" fill="none"></path></g></g><mask></mask><g stroke-linecap="round"><g transform="translate(35.619990334449994 36.55381772547162) rotate(0 0.5153845337564462 -3.6076917362947825)" fill-rule="evenodd"><path d="M1.6 -0.22 C1.93 0.41, 2.69 1.72, 2.85 2.38 C3 3.04, 2.37 4.29, 2.54 3.75 C2.72 3.21, 3.73 0.83, 3.91 -0.86 C4.08 -2.54, 3.65 -4.45, 3.6 -6.34 C3.55 -8.22, 4.25 -11.47, 3.58 -12.17 C2.91 -12.86, 0.38 -11.85, -0.44 -10.49 C-1.26 -9.13, -1.26 -5.66, -1.34 -3.99 C-1.42 -2.32, -1.08 -1.78, -0.92 -0.49 C-0.76 0.79, -0.33 3.67, -0.37 3.71 C-0.42 3.75, -1.23 0.61, -1.19 -0.23" stroke="none" stroke-width="0" fill="#878178" fill-rule="evenodd"></path><path d="M0.06 0.1 C0.26 0.38, 0.94 0.46, 1.36 1.14 C1.78 1.82, 2.38 4.59, 2.56 4.18 C2.75 3.77, 2.47 0.43, 2.46 -1.32 C2.45 -3.07, 2.56 -4.57, 2.5 -6.32 C2.43 -8.08, 2.47 -10.98, 2.06 -11.86 C1.66 -12.74, 0.7 -12.69, 0.07 -11.59 C-0.56 -10.49, -1.44 -7.05, -1.71 -5.27 C-1.98 -3.48, -1.59 -2.1, -1.54 -0.88 C-1.48 0.35, -1.6 2.02, -1.37 2.09 C-1.15 2.15, -0.43 -0.11, -0.19 -0.49 M-0.58 -0.33 C-0.47 -0.18, 0.38 -0.61, 0.87 0.23 C1.36 1.07, 2.1 5.12, 2.36 4.7 C2.62 4.28, 2.47 -0.5, 2.4 -2.29 C2.33 -4.08, 1.91 -4.61, 1.94 -6.03 C1.97 -7.45, 2.84 -10.05, 2.55 -10.82 C2.27 -11.59, 1.04 -11.54, 0.25 -10.67 C-0.55 -9.79, -1.82 -7.33, -2.23 -5.55 C-2.63 -3.78, -2.37 -1.26, -2.18 -0.03 C-1.99 1.21, -1.42 1.9, -1.08 1.86 C-0.74 1.81, -0.23 0.09, -0.14 -0.3" stroke="#000000" stroke-width="1" fill="none"></path></g></g><mask></mask><g stroke-linecap="round"><g transform="translate(64.4199074886227 41.514507218503695) rotate(0 1.0752892634019418 -7.945192890691487)" fill-rule="evenodd"><path d="M0.26 -0.59 C0.03 -1.67, -0.07 -3.21, -0.03 -5.14 C0.02 -7.06, 0.46 -10.26, 0.54 -12.15 C0.62 -14.05, 0.44 -16.04, 0.45 -16.5 C0.46 -16.96, 0.06 -16.41, 0.58 -14.92 C1.1 -13.44, 3.03 -9.7, 3.56 -7.59 C4.1 -5.47, 3.84 -2.94, 3.79 -2.21 C3.74 -1.47, 3.81 -2.57, 3.28 -3.18 C2.75 -3.78, 1.03 -5.15, 0.6 -5.85 C0.17 -6.55, 0.52 -7.4, 0.7 -7.36 C0.89 -7.32, 1.62 -7.05, 1.72 -5.62 C1.83 -4.18, 1.69 0.37, 1.35 1.23" stroke="none" stroke-width="0" fill="#878178" fill-rule="evenodd"></path><path d="M-0.12 0.11 C-0.28 -0.93, -0.69 -4.12, -0.85 -6.14 C-1.02 -8.15, -1.16 -10.41, -1.11 -11.99 C-1.06 -13.58, -0.92 -14.98, -0.56 -15.66 C-0.21 -16.34, 0.42 -17.2, 1.02 -16.07 C1.62 -14.93, 2.75 -11.12, 3.06 -8.85 C3.37 -6.59, 2.93 -3.11, 2.85 -2.49 C2.78 -1.87, 2.83 -4.58, 2.63 -5.11 C2.43 -5.64, 2 -5.44, 1.67 -5.66 C1.34 -5.89, 0.88 -6.64, 0.66 -6.48 C0.44 -6.31, 0.41 -5.69, 0.35 -4.69 C0.29 -3.69, 0.27 -1.24, 0.3 -0.47 M0.81 -0.31 C0.61 -1.28, -1.01 -3.43, -1.14 -5.52 C-1.27 -7.61, -0.1 -11, 0.03 -12.87 C0.17 -14.73, -0.64 -16.18, -0.34 -16.71 C-0.03 -17.24, 1.21 -17.53, 1.87 -16.04 C2.52 -14.56, 3.38 -10.2, 3.59 -7.79 C3.79 -5.38, 3.32 -1.96, 3.1 -1.57 C2.88 -1.18, 2.38 -4.66, 2.28 -5.45 C2.18 -6.24, 2.74 -6.35, 2.52 -6.32 C2.29 -6.29, 1.24 -5.6, 0.91 -5.27 C0.58 -4.94, 0.71 -5.34, 0.52 -4.34 C0.34 -3.33, 0.03 0.12, -0.18 0.76" stroke="#000000" stroke-width="1" fill="none"></path></g></g><mask></mask><g stroke-linecap="round"><g transform="translate(40.78584013482532 20.963146943658103) rotate(0 9.676418296672296 1.3556334811762554)" fill-rule="evenodd"><path d="M1.36 1.35 C1.57 1.99, 1.25 2.56, 2.88 3.62 C4.51 4.67, 9.22 7.08, 11.11 7.66 C13 8.25, 13.06 7.84, 14.22 7.13 C15.38 6.42, 17.32 4.49, 18.05 3.41 C18.79 2.33, 18.7 1.56, 18.62 0.66 C18.54 -0.24, 18.93 -1.17, 17.57 -1.98 C16.22 -2.78, 12.65 -4.19, 10.47 -4.19 C8.3 -4.19, 6.47 -2.64, 4.52 -1.98 C2.58 -1.32, -0.42 -0.33, -1.19 -0.23" stroke="none" stroke-width="0" fill="#878178" fill-rule="evenodd"></path><path d="M0.28 -0.16 C0.68 0.58, 0.63 3.38, 2.28 4.58 C3.94 5.78, 8.5 6.71, 10.22 7.05 C11.94 7.39, 11.54 7.17, 12.61 6.62 C13.67 6.07, 15.49 4.95, 16.6 3.77 C17.71 2.59, 19.11 0.74, 19.26 -0.45 C19.41 -1.63, 19.15 -2.72, 17.53 -3.35 C15.9 -3.99, 11.86 -4.14, 9.51 -4.26 C7.17 -4.37, 5.03 -4.72, 3.46 -4.05 C1.88 -3.37, 0.57 -0.78, 0.05 -0.19 M-0.24 -0.72 C0.35 -0.14, 1.64 2.67, 3.34 3.81 C5.05 4.94, 8.44 5.58, 9.98 6.1 C11.52 6.63, 11.32 7.35, 12.57 6.97 C13.82 6.59, 16.27 4.88, 17.48 3.82 C18.7 2.76, 19.78 1.66, 19.86 0.61 C19.93 -0.44, 19.75 -1.65, 17.94 -2.49 C16.12 -3.33, 11.26 -4.31, 8.98 -4.44 C6.7 -4.57, 5.69 -3.92, 4.26 -3.26 C2.84 -2.61, 1.03 -0.99, 0.42 -0.49" stroke="#000000" stroke-width="1" fill="none"></path></g></g><mask></mask><g stroke-linecap="round"><g transform="translate(48.478168998904266 40.42999397427184) rotate(0 -3.0531761219566533 -0.5628860601764245)" fill-rule="evenodd"><path d="M-0.48 -1.25 C-0.86 -1.66, -1.75 -2.53, -2.56 -2.61 C-3.37 -2.69, -5.53 -2.3, -5.34 -1.72 C-5.15 -1.15, -2.51 0.35, -1.43 0.83 C-0.35 1.31, 0.88 1.36, 1.15 1.14" stroke="none" stroke-width="0" fill="#fff" fill-rule="evenodd"></path><path d="M-0.22 0.24 C-0.67 -0.07, -1.53 -1.83, -2.54 -2 C-3.55 -2.16, -6.23 -1.2, -6.3 -0.73 C-6.36 -0.25, -3.98 0.76, -2.94 0.85 C-1.9 0.95, -0.57 0.01, -0.06 -0.17 M0.32 0.06 C-0.19 -0.36, -1.59 -2.46, -2.75 -2.54 C-3.9 -2.63, -6.58 -1.05, -6.62 -0.44 C-6.65 0.17, -3.96 1.04, -2.94 1.09 C-1.92 1.14, -0.94 -0.03, -0.52 -0.14" stroke="#14100c" stroke-width="1" fill="none"></path></g></g><mask></mask><g stroke-linecap="round"><g transform="translate(54.94331292042534 40.07425339594647) rotate(0 3.106740615324327 -0.6827178505297979)" fill-rule="evenodd"><path d="M0.12 -0.47 C0.86 -0.85, 2.68 -3.38, 3.92 -3.52 C5.16 -3.65, 7.39 -2.19, 7.57 -1.26 C7.76 -0.32, 6.24 1.98, 5.01 2.11 C3.79 2.23, 0.9 -0.27, 0.22 -0.5" stroke="none" stroke-width="0" fill="#fff" fill-rule="evenodd"></path><path d="M0.14 0.15 C0.67 -0.31, 1.98 -2.29, 2.97 -2.52 C3.95 -2.75, 5.93 -1.79, 6.07 -1.23 C6.21 -0.68, 4.78 0.63, 3.8 0.8 C2.81 0.96, 0.79 -0.1, 0.15 -0.23 M-0.22 -0.08 C0.45 -0.52, 2.67 -2.03, 3.66 -2.17 C4.66 -2.31, 5.74 -1.46, 5.77 -0.93 C5.8 -0.4, 4.84 0.92, 3.84 1.03 C2.84 1.15, 0.38 -0.01, -0.21 -0.24" stroke="#14100c" stroke-width="1" fill="none"></path></g></g><mask></mask><g stroke-linecap="round" transform="translate(44.19300952949152 38.28741423956535) rotate(0 1.3391123341915545 1.3926768275591712)"><path d="M1.45 -0.01 C1.71 -0.05, 2.06 0.2, 2.24 0.4 C2.41 0.6, 2.47 0.88, 2.48 1.19 C2.48 1.49, 2.4 2.02, 2.28 2.25 C2.16 2.48, 1.98 2.49, 1.76 2.57 C1.54 2.64, 1.2 2.8, 0.95 2.69 C0.7 2.58, 0.37 2.16, 0.26 1.91 C0.15 1.67, 0.28 1.51, 0.29 1.23 C0.3 0.95, 0.09 0.46, 0.31 0.23 C0.53 0.01, 1.44 -0.13, 1.63 -0.12 C1.82 -0.1, 1.5 0.28, 1.44 0.31 M1.1 -0.29 C1.33 -0.34, 1.57 0.24, 1.8 0.48 C2.03 0.72, 2.4 0.92, 2.51 1.13 C2.62 1.33, 2.6 1.51, 2.45 1.71 C2.29 1.92, 1.8 2.24, 1.6 2.37 C1.4 2.49, 1.46 2.57, 1.24 2.46 C1.02 2.35, 0.55 1.92, 0.28 1.7 C0.01 1.48, -0.42 1.42, -0.38 1.13 C-0.34 0.84, 0.28 0.09, 0.52 -0.05 C0.77 -0.2, 1 0.32, 1.09 0.27 C1.18 0.22, 0.99 -0.36, 1.04 -0.34" stroke="none" stroke-width="0" fill="#191210"></path><path d="M1.09 0.14 C1.35 0.1, 1.66 0.06, 1.91 0.2 C2.16 0.33, 2.55 0.64, 2.61 0.94 C2.67 1.25, 2.38 1.72, 2.24 2.03 C2.1 2.35, 2.03 2.68, 1.77 2.85 C1.51 3.02, 0.95 3.12, 0.68 3.06 C0.42 2.99, 0.25 2.74, 0.18 2.45 C0.12 2.15, 0.26 1.6, 0.28 1.3 C0.3 0.99, 0.1 0.79, 0.29 0.61 C0.48 0.44, 1.26 0.33, 1.44 0.27 C1.61 0.21, 1.38 0.32, 1.33 0.28 M1.71 0.01 C2.02 0.05, 2.45 0.69, 2.55 0.89 C2.65 1.09, 2.34 1.05, 2.31 1.2 C2.28 1.35, 2.42 1.57, 2.39 1.77 C2.36 1.97, 2.32 2.19, 2.12 2.4 C1.92 2.61, 1.53 3.12, 1.19 3.03 C0.84 2.94, 0.2 2.15, 0.03 1.84 C-0.13 1.53, 0.09 1.42, 0.18 1.19 C0.28 0.95, 0.43 0.68, 0.62 0.44 C0.81 0.19, 1.25 -0.27, 1.33 -0.28 C1.4 -0.29, 1.1 0.22, 1.05 0.36" stroke="#000000" stroke-width="1" fill="none"></path></g><g stroke-linecap="round" transform="translate(56.96701194251557 37.91748986643688) rotate(0 1.3391123341915545 1.3391123341914408)"><path d="M1.43 -0.05 C1.69 -0.05, 1.95 0.05, 2.14 0.28 C2.33 0.51, 2.51 1.01, 2.58 1.3 C2.64 1.58, 2.67 1.75, 2.55 1.99 C2.42 2.22, 2.13 2.64, 1.85 2.73 C1.57 2.82, 1.12 2.63, 0.86 2.53 C0.6 2.43, 0.49 2.38, 0.31 2.11 C0.12 1.85, -0.33 1.28, -0.26 0.94 C-0.2 0.6, 0.42 0.17, 0.7 0.06 C0.99 -0.05, 1.32 0.3, 1.43 0.28 C1.54 0.25, 1.33 -0.04, 1.34 -0.08 M1.11 0.19 C1.39 0.25, 1.91 0.31, 2.16 0.43 C2.41 0.55, 2.6 0.68, 2.6 0.91 C2.61 1.14, 2.29 1.56, 2.19 1.81 C2.09 2.05, 2.21 2.33, 1.99 2.38 C1.76 2.44, 1.21 2.21, 0.83 2.12 C0.46 2.03, -0.16 2.08, -0.28 1.82 C-0.39 1.56, 0.02 0.78, 0.13 0.56 C0.24 0.34, 0.2 0.65, 0.38 0.5 C0.57 0.35, 1.02 -0.32, 1.23 -0.36 C1.43 -0.39, 1.58 0.28, 1.6 0.3" stroke="none" stroke-width="0" fill="#191210"></path><path d="M1.08 -0.07 C1.38 -0.14, 1.93 -0.02, 2.14 0.17 C2.35 0.37, 2.31 0.77, 2.35 1.1 C2.4 1.43, 2.54 1.86, 2.4 2.16 C2.27 2.46, 1.8 2.79, 1.55 2.91 C1.29 3.03, 1.05 3.02, 0.87 2.89 C0.69 2.75, 0.64 2.35, 0.47 2.09 C0.31 1.84, -0.13 1.62, -0.11 1.37 C-0.08 1.12, 0.38 0.79, 0.62 0.61 C0.87 0.42, 1.27 0.37, 1.36 0.25 C1.46 0.13, 1.2 -0.11, 1.22 -0.12 M1.75 0.49 C1.91 0.49, 1.79 0.28, 1.94 0.34 C2.08 0.39, 2.48 0.58, 2.63 0.82 C2.78 1.06, 2.95 1.42, 2.86 1.79 C2.76 2.15, 2.44 2.91, 2.08 3.01 C1.71 3.12, 0.97 2.56, 0.66 2.4 C0.36 2.24, 0.35 2.25, 0.26 2.04 C0.16 1.83, 0.07 1.5, 0.11 1.16 C0.14 0.81, 0.3 0.08, 0.46 -0.06 C0.62 -0.19, 0.98 0.25, 1.08 0.33 C1.17 0.41, 0.99 0.44, 1.05 0.41" stroke="#000000" stroke-width="1" fill="none"></path></g><g stroke-linecap="round" transform="translate(45.04376126659065 39.46061966783191) rotate(0 0.4441770185852647 0.36611739907061747)"><path d="M0.24 -0.18 C0.33 -0.17, 0.49 0.02, 0.62 0.07 C0.76 0.12, 0.96 0.01, 1.04 0.11 C1.12 0.2, 1.13 0.52, 1.08 0.62 C1.04 0.73, 0.86 0.66, 0.77 0.72 C0.67 0.79, 0.69 1.02, 0.51 1 C0.34 0.98, -0.2 0.72, -0.27 0.58 C-0.34 0.45, 0.02 0.21, 0.07 0.17 C0.11 0.13, -0.01 0.4, 0.01 0.35 C0.03 0.3, 0.12 -0.06, 0.19 -0.13 C0.25 -0.2, 0.32 -0.07, 0.4 -0.07 M0.26 0.02 C0.4 -0.08, 0.56 -0.27, 0.62 -0.28 C0.69 -0.29, 0.55 -0.14, 0.64 -0.05 C0.73 0.04, 1.16 0.21, 1.18 0.26 C1.19 0.32, 0.93 0.21, 0.72 0.27 C0.51 0.34, 0.04 0.68, -0.06 0.66 C-0.15 0.65, 0.18 0.18, 0.16 0.18 C0.13 0.17, -0.16 0.68, -0.21 0.61 C-0.26 0.54, -0.25 -0.2, -0.13 -0.25 C-0.01 -0.31, 0.46 0.29, 0.52 0.27 C0.58 0.25, 0.24 -0.33, 0.24 -0.38" stroke="none" stroke-width="0" fill="#000"></path><path d="M0.45 -0.11 C0.52 -0.1, 0.4 0.03, 0.45 0.13 C0.51 0.24, 0.76 0.38, 0.77 0.51 C0.79 0.64, 0.57 0.82, 0.53 0.9 C0.49 0.98, 0.52 1.02, 0.52 0.99 C0.52 0.97, 0.64 0.79, 0.54 0.75 C0.44 0.71, -0.02 0.79, -0.08 0.75 C-0.13 0.72, 0.13 0.62, 0.18 0.55 C0.23 0.47, 0.2 0.43, 0.23 0.32 C0.26 0.2, 0.29 -0.11, 0.36 -0.15 C0.43 -0.19, 0.61 0.01, 0.66 0.07 M0.08 -0.07 C0.12 -0.23, 0.48 -0.34, 0.69 -0.34 C0.89 -0.33, 1.22 -0.25, 1.31 -0.04 C1.41 0.17, 1.38 0.82, 1.24 0.92 C1.11 1.03, 0.64 0.58, 0.5 0.57 C0.37 0.56, 0.5 0.84, 0.43 0.86 C0.37 0.89, 0.21 0.87, 0.11 0.73 C0.02 0.59, -0.06 0.07, -0.12 0.02 C-0.18 -0.04, -0.27 0.35, -0.24 0.41 C-0.22 0.47, -0.09 0.45, 0.02 0.37 C0.14 0.3, 0.3 0.05, 0.44 -0.01" stroke="#000000" stroke-width="1" fill="none"></path></g><g stroke-linecap="round" transform="translate(45.687815275235266 39.65670693069114) rotate(0 0 0.00709189740155125)"><path d="M-0.1 -0.01 C-0.04 -0.01, 0.1 -0.21, 0.16 -0.19 C0.22 -0.17, 0.25 0.05, 0.25 0.08 C0.25 0.12, 0.17 -0.01, 0.17 0.03 C0.16 0.06, 0.3 0.3, 0.22 0.3 C0.13 0.31, -0.31 0.12, -0.33 0.04 C-0.36 -0.03, 0.03 -0.16, 0.06 -0.13 C0.09 -0.09, -0.09 0.26, -0.14 0.26 C-0.2 0.26, -0.27 -0.07, -0.26 -0.13 C-0.24 -0.18, -0.14 -0.08, -0.06 -0.08 C0.02 -0.08, 0.24 -0.1, 0.21 -0.13 M-0.07 -0.34 C-0.09 -0.4, -0.3 -0.33, -0.23 -0.32 C-0.16 -0.3, 0.27 -0.23, 0.33 -0.25 C0.38 -0.27, 0.2 -0.45, 0.08 -0.41 C-0.03 -0.38, -0.39 -0.05, -0.39 -0.04 C-0.39 -0.04, 0.04 -0.44, 0.07 -0.39 C0.1 -0.34, -0.16 0.28, -0.21 0.28 C-0.27 0.29, -0.31 -0.36, -0.26 -0.36 C-0.2 -0.36, 0.1 0.27, 0.12 0.27 C0.13 0.26, -0.16 -0.34, -0.16 -0.39 C-0.17 -0.43, 0.08 -0.16, 0.08 -0.02" stroke="none" stroke-width="0" fill="#fff"></path><path d="M-0.3 0.03 C-0.31 0.08, -0.11 0.13, -0.11 0.19 C-0.11 0.24, -0.3 0.31, -0.28 0.33 C-0.27 0.35, -0.14 0.33, -0.04 0.29 C0.05 0.24, 0.29 0.07, 0.27 0.07 C0.26 0.06, -0.1 0.2, -0.12 0.24 C-0.14 0.27, 0.14 0.28, 0.17 0.28 C0.2 0.28, 0.09 0.33, 0.04 0.26 C-0.01 0.18, -0.15 -0.11, -0.12 -0.15 C-0.1 -0.18, 0.12 0, 0.17 0.06 C0.23 0.11, 0.23 0.15, 0.21 0.17 M-0.04 -0.42 C0.09 -0.47, 0.36 -0.47, 0.43 -0.34 C0.51 -0.2, 0.5 0.35, 0.41 0.38 C0.32 0.42, -0.05 -0.1, -0.09 -0.13 C-0.14 -0.17, 0.11 0.11, 0.14 0.17 C0.16 0.22, 0.1 0.27, 0.05 0.2 C0.01 0.12, -0.05 -0.3, -0.13 -0.28 C-0.21 -0.25, -0.35 0.22, -0.4 0.33 C-0.45 0.44, -0.49 0.43, -0.42 0.38 C-0.36 0.32, -0.15 0.05, 0 -0.02 C0.15 -0.09, 0.38 -0.01, 0.46 -0.03" stroke="#fff" stroke-width="1" fill="none"></path></g><g stroke-linecap="round" transform="translate(57.83327612834671 38.97567473711251) rotate(0 0.41580942897923023 0.3590255016690662)"><path d="M0.54 -0.19 C0.68 -0.19, 0.83 0.06, 0.91 0.14 C0.98 0.22, 0.97 0.17, 0.98 0.28 C1 0.39, 1.13 0.73, 1.01 0.8 C0.89 0.87, 0.36 0.75, 0.26 0.71 C0.15 0.68, 0.42 0.55, 0.37 0.57 C0.32 0.59, 0.04 0.88, -0.07 0.82 C-0.17 0.76, -0.28 0.33, -0.26 0.2 C-0.24 0.07, -0.08 0.08, 0.06 0.03 C0.21 -0.03, 0.58 -0.09, 0.6 -0.13 C0.62 -0.17, 0.21 -0.25, 0.2 -0.24 M0.19 -0.32 C0.34 -0.31, 0.89 -0.2, 1.01 -0.17 C1.13 -0.14, 1.01 -0.23, 0.91 -0.12 C0.81 -0.01, 0.43 0.41, 0.38 0.48 C0.34 0.55, 0.68 0.21, 0.63 0.29 C0.57 0.37, 0.2 0.99, 0.06 0.97 C-0.08 0.95, -0.21 0.24, -0.2 0.17 C-0.19 0.11, 0.09 0.64, 0.13 0.56 C0.16 0.48, -0.08 -0.21, -0.01 -0.3 C0.05 -0.4, 0.46 -0.15, 0.5 -0.02 C0.54 0.11, 0.2 0.47, 0.25 0.47" stroke="none" stroke-width="0" fill="#000"></path><path d="M0.28 0.18 C0.37 0.23, 0.3 0.34, 0.38 0.4 C0.46 0.46, 0.66 0.52, 0.78 0.55 C0.89 0.58, 1.11 0.51, 1.06 0.57 C1.01 0.63, 0.56 0.85, 0.46 0.91 C0.36 0.98, 0.52 0.99, 0.47 0.97 C0.41 0.95, 0.21 0.94, 0.11 0.81 C0.01 0.67, -0.15 0.28, -0.12 0.17 C-0.09 0.06, 0.18 0.15, 0.3 0.15 C0.42 0.16, 0.59 0.17, 0.61 0.17 C0.62 0.18, 0.39 0.25, 0.41 0.19 M0.84 -0.34 C1 -0.21, 1.11 0.37, 1.09 0.45 C1.07 0.53, 0.76 0.11, 0.73 0.15 C0.7 0.18, 0.94 0.56, 0.92 0.68 C0.9 0.81, 0.75 0.92, 0.62 0.88 C0.49 0.83, 0.31 0.41, 0.15 0.41 C-0.01 0.41, -0.25 0.83, -0.34 0.87 C-0.44 0.91, -0.5 0.81, -0.42 0.68 C-0.34 0.55, -0.07 0.19, 0.14 0.07 C0.35 -0.05, 0.74 0, 0.86 -0.03 C0.98 -0.07, 0.95 -0.12, 0.86 -0.13" stroke="#000000" stroke-width="1" fill="none"></path></g><g stroke-linecap="round" transform="translate(58.418215289921704 39.047159097336134) rotate(0 0 0.00709189740155125)"><path d="M0.25 0.08 C0.25 0.11, 0.17 -0.02, 0.17 0.02 C0.16 0.05, 0.3 0.29, 0.22 0.29 C0.13 0.3, -0.31 0.11, -0.33 0.04 C-0.36 -0.03, 0.03 -0.16, 0.06 -0.12 C0.09 -0.08, -0.09 0.27, -0.14 0.27 C-0.2 0.27, -0.27 -0.06, -0.26 -0.12 C-0.24 -0.17, -0.14 -0.07, -0.06 -0.07 C0.02 -0.07, 0.24 -0.1, 0.21 -0.13 C0.19 -0.16, -0.18 -0.25, -0.19 -0.25 C-0.21 -0.24, 0.09 -0.13, 0.12 -0.1 M0.33 -0.26 C0.38 -0.27, 0.2 -0.45, 0.08 -0.42 C-0.03 -0.39, -0.39 -0.06, -0.39 -0.05 C-0.39 -0.05, 0.04 -0.45, 0.07 -0.39 C0.1 -0.34, -0.16 0.28, -0.21 0.28 C-0.27 0.29, -0.31 -0.35, -0.26 -0.35 C-0.2 -0.35, 0.1 0.28, 0.12 0.28 C0.13 0.27, -0.16 -0.33, -0.16 -0.38 C-0.17 -0.43, 0.08 -0.16, 0.08 -0.02 C0.08 0.12, -0.22 0.47, -0.17 0.47 C-0.12 0.47, 0.38 0.03, 0.4 -0.03" stroke="none" stroke-width="0" fill="#fff"></path><path d="M-0.28 0.33 C-0.27 0.34, -0.14 0.32, -0.04 0.28 C0.05 0.23, 0.29 0.07, 0.27 0.06 C0.26 0.05, -0.1 0.2, -0.12 0.24 C-0.14 0.27, 0.14 0.28, 0.17 0.28 C0.2 0.29, 0.09 0.33, 0.04 0.26 C-0.01 0.19, -0.15 -0.11, -0.12 -0.14 C-0.1 -0.17, 0.12 0.01, 0.17 0.06 C0.23 0.11, 0.23 0.15, 0.21 0.17 C0.18 0.19, -0.01 0.25, 0 0.18 C0.02 0.11, 0.33 -0.21, 0.32 -0.24 M0.41 0.37 C0.32 0.41, -0.05 -0.11, -0.09 -0.14 C-0.14 -0.18, 0.11 0.1, 0.14 0.16 C0.16 0.21, 0.1 0.26, 0.05 0.19 C0.01 0.12, -0.05 -0.3, -0.13 -0.27 C-0.21 -0.25, -0.35 0.23, -0.4 0.34 C-0.45 0.45, -0.49 0.44, -0.42 0.39 C-0.36 0.33, -0.15 0.05, 0 -0.02 C0.15 -0.08, 0.38 -0.01, 0.46 -0.03 C0.53 -0.05, 0.54 -0.12, 0.46 -0.14 C0.37 -0.16, 0.05 -0.14, -0.05 -0.16" stroke="#fff" stroke-width="1" fill="none"></path></g><g stroke-linecap="round"><g transform="translate(54.33136618192816 44.17163158685571) rotate(0 -2.2591784343997006 -0.8097388952301117)" fill-rule="evenodd"><path d="M0.88 1.57 C0.64 1.93, -0.3 1.95, -0.6 2.18 C-0.89 2.41, -0.75 2.81, -0.89 2.96 C-1.03 3.12, -0.95 2.91, -1.43 3.1 C-1.91 3.29, -3.14 4.56, -3.77 4.09 C-4.39 3.62, -5.35 1.32, -5.18 0.29 C-5 -0.75, -3.06 -1.35, -2.71 -2.13 C-2.36 -2.9, -2.75 -3.59, -3.09 -4.39 C-3.43 -5.18, -4.34 -6.81, -4.77 -6.9" stroke="none" stroke-width="0" fill="#fab005" fill-rule="evenodd"></path><path d="M0.05 -0.19 C0.23 0.22, 0.94 1.2, 0.9 1.95 C0.86 2.69, 0.34 3.82, -0.21 4.27 C-0.75 4.72, -1.58 4.93, -2.39 4.66 C-3.19 4.4, -4.68 3.27, -5.03 2.66 C-5.38 2.06, -4.89 1.91, -4.51 1.04 C-4.12 0.17, -3 -1.52, -2.73 -2.55 C-2.45 -3.59, -2.54 -4.67, -2.85 -5.19 C-3.17 -5.71, -4.36 -5.61, -4.59 -5.68 M-0.59 -0.76 C-0.44 -0.26, 0.57 1.47, 0.63 2.4 C0.68 3.34, 0.17 4.61, -0.28 4.83 C-0.72 5.05, -1.14 4.08, -2.04 3.73 C-2.94 3.38, -5.1 3.24, -5.65 2.74 C-6.2 2.24, -5.64 1.69, -5.34 0.71 C-5.04 -0.27, -4.24 -2.1, -3.87 -3.13 C-3.5 -4.16, -3.12 -4.95, -3.11 -5.45 C-3.1 -5.96, -3.69 -6.13, -3.81 -6.16" stroke="#00000088" stroke-width="1" fill="none"></path></g></g><mask></mask><g stroke-linecap="round"><g transform="translate(55.01275565622666 44.58364978339205) rotate(0 0.11356491238313993 1.7716126331763462)" fill-rule="evenodd"><path d="M-0.62 0.72 C-0.59 1.22, 0.89 2.15, 1.24 2.5 C1.58 2.84, 1.52 2.41, 1.44 2.79 C1.37 3.16, 1.33 4.65, 0.79 4.74 C0.25 4.84, -1.5 3.74, -1.79 3.34" stroke="none" stroke-width="0" fill="#fab005" fill-rule="evenodd"></path><path d="M0.2 -0.3 C0.42 -0.02, 1.21 1.03, 1.35 1.59 C1.48 2.15, 1.23 2.78, 1.02 3.06 C0.81 3.34, 0.36 3.17, 0.1 3.28 C-0.16 3.39, -0.43 3.67, -0.53 3.73 M-0.13 0.31 C0.07 0.66, 1.07 1.64, 1.25 2.01 C1.43 2.38, 1.12 2.27, 0.95 2.52 C0.77 2.78, 0.5 3.3, 0.2 3.54 C-0.09 3.77, -0.64 3.97, -0.84 3.93" stroke="#00000088" stroke-width="1" fill="none"></path></g></g><mask></mask><g stroke-linecap="round"><g transform="translate(50.17115325411203 48.22195112495092) rotate(0 -1.0447971939245804 -1.5571552443088876)" fill-rule="evenodd"><path d="M0.24 0.86 C0.29 0.75, -0.03 0.09, -0.28 0.02 C-0.54 -0.05, -0.83 0.87, -1.3 0.43 C-1.77 -0.02, -3.18 -1.87, -3.1 -2.65 C-3.03 -3.44, -1.43 -4.05, -0.84 -4.29" stroke="none" stroke-width="0" fill="#fab005" fill-rule="evenodd"></path><path d="M0.35 -0.05 C0.2 0.05, -0.32 0.46, -0.7 0.29 C-1.09 0.13, -1.8 -0.61, -1.99 -1.04 C-2.18 -1.46, -2.11 -1.93, -1.85 -2.27 C-1.59 -2.61, -0.66 -2.91, -0.42 -3.07 M0.1 -0.38 C-0.09 -0.35, -0.45 -0.13, -0.83 -0.18 C-1.21 -0.24, -2.05 -0.26, -2.18 -0.72 C-2.32 -1.17, -1.9 -2.56, -1.65 -2.93 C-1.41 -3.3, -0.82 -2.81, -0.71 -2.93" stroke="#00000088" stroke-width="1" fill="none"></path></g></g><mask></mask><g stroke-linecap="round"><g transform="translate(51.99533447903718 51.41748124318565) rotate(0 -0.2457471011800294 0.7431741854884422)" fill-rule="evenodd"><path d="M0.46 0.5 C0.36 0.52, -0.07 -0.03, -0.87 -0.34 C-1.66 -0.65, -3.31 -1.57, -4.31 -1.36 C-5.32 -1.14, -6.68 0.37, -6.89 0.95 C-7.09 1.54, -6.44 1.94, -5.55 2.17 C-4.66 2.41, -2.98 2.35, -1.56 2.38 C-0.14 2.41, 1.83 2.66, 2.95 2.35 C4.07 2.05, 4.81 1.02, 5.14 0.54 C5.47 0.07, 5.17 -0.17, 4.93 -0.49 C4.69 -0.81, 4.47 -1.18, 3.7 -1.35 C2.93 -1.51, 0.93 -1.84, 0.3 -1.48 C-0.32 -1.12, 0.15 0.34, -0.06 0.79" stroke="none" stroke-width="0" fill="#422c32" fill-rule="evenodd"></path><path d="M0.46 0.45 C0.21 0.27, -0.29 -1.04, -0.96 -1.14 C-1.62 -1.23, -2.82 -0.32, -3.52 -0.14 C-4.21 0.05, -5.09 -0.18, -5.13 -0.04 C-5.17 0.11, -4.3 0.28, -3.75 0.74 C-3.2 1.21, -2.69 2.4, -1.8 2.74 C-0.92 3.08, 0.59 3.09, 1.54 2.81 C2.5 2.52, 3.29 1.38, 3.93 1.01 C4.57 0.64, 5.42 0.82, 5.37 0.58 C5.33 0.34, 4.35 -0.1, 3.64 -0.44 C2.93 -0.78, 1.64 -1.45, 1.12 -1.44 C0.59 -1.43, 0.59 -0.68, 0.48 -0.37 M0.03 0.21 C-0.33 0.11, -0.73 -0.33, -1.34 -0.54 C-1.96 -0.75, -3.1 -1.23, -3.67 -1.06 C-4.25 -0.89, -4.7 0.19, -4.79 0.5 C-4.88 0.82, -4.79 0.5, -4.21 0.82 C-3.62 1.13, -2.3 2.15, -1.29 2.41 C-0.27 2.67, 1.07 2.63, 1.89 2.37 C2.7 2.11, 3.13 1.22, 3.61 0.86 C4.09 0.5, 4.74 0.48, 4.77 0.22 C4.79 -0.04, 4.38 -0.44, 3.79 -0.69 C3.2 -0.93, 1.85 -1.22, 1.24 -1.23 C0.62 -1.24, 0.15 -1, 0.08 -0.76" stroke="#000000cc" stroke-width="1" fill="none"></path></g></g><mask></mask><g stroke-linecap="round"><g transform="translate(46.64147345859419 51.435247647673805) rotate(0 5.089487192351214 0.4059100214758473)"><path d="M0.09 -0.2 C0.71 -0.12, 3.27 0.73, 4.18 0.91 C5.09 1.09, 4.99 1.01, 5.56 0.88 C6.14 0.76, 6.9 0.23, 7.62 0.14 C8.35 0.05, 9.49 0.28, 9.93 0.32 M-0.53 -0.78 C0.01 -0.9, 2.95 -0.3, 3.94 0.08 C4.94 0.47, 4.77 1.44, 5.44 1.52 C6.11 1.6, 7.05 0.68, 7.95 0.54 C8.84 0.39, 10.3 0.72, 10.8 0.64" stroke="#000" stroke-width="1" fill="none"></path></g></g><mask></mask><g stroke-linecap="round"><g transform="translate(51.82435923803064 55.58709774638146) rotate(0 -0.15855695911989187 5.192740411173872)" fill-rule="evenodd"><path d="M1.35 1.23 C0.58 1.53, -2.48 0.27, -3.23 0.72 C-3.99 1.17, -3.84 2.58, -3.19 3.91 C-2.54 5.24, 0.23 7.76, 0.65 8.69 C1.08 9.61, -0.76 9.78, -0.66 9.45 C-0.57 9.12, 0.79 7.93, 1.22 6.69 C1.65 5.45, 2.14 3.15, 1.94 2.02 C1.74 0.89, 0.07 0.28, 0 -0.07" stroke="none" stroke-width="0" fill="#4c463e" fill-rule="evenodd"></path><path d="M0.37 0.28 C-0.06 0.52, -1.89 0.77, -2.49 1.26 C-3.09 1.75, -3.69 2.02, -3.24 3.21 C-2.78 4.39, -0.29 7.12, 0.23 8.37 C0.74 9.62, -0.58 11.18, -0.14 10.73 C0.29 10.27, 2.19 7.2, 2.82 5.64 C3.45 4.07, 4.16 2.27, 3.62 1.32 C3.09 0.37, 0.21 0.22, -0.4 -0.08 M-0.1 -0.05 C-0.57 0.31, -2.15 1.37, -2.69 2 C-3.24 2.62, -3.86 2.81, -3.37 3.7 C-2.89 4.59, -0.22 6.12, 0.22 7.35 C0.65 8.58, -1.05 11.44, -0.77 11.08 C-0.48 10.72, 1.14 6.85, 1.94 5.17 C2.75 3.48, 4.29 1.89, 4.07 0.98 C3.84 0.07, 1.13 -0.17, 0.59 -0.27" stroke="#000000" stroke-width="1" fill="none"></path></g></g><mask></mask><g stroke-linecap="round"><g transform="translate(44.174307823608615 51.114289211202504) rotate(0 7.441917256591978 -0.23165501187850168)" fill-rule="evenodd"><path d="M-0.42 -0.94 C-0.05 -1.31, 1.31 -1.7, 2.45 -1.66 C3.58 -1.62, 4.92 -0.46, 6.37 -0.68 C7.81 -0.91, 9.45 -3.02, 11.12 -3.03 C12.79 -3.03, 15.83 -1.49, 16.38 -0.69 C16.93 0.1, 15 1.76, 14.41 1.74 C13.81 1.72, 13.94 -0.17, 12.82 -0.83 C11.7 -1.49, 9.6 -2.3, 7.71 -2.2 C5.81 -2.11, 2.36 -1.19, 1.46 -0.27 C0.55 0.64, 2.66 3.03, 2.26 3.28 C1.86 3.53, -0.63 1.65, -0.94 1.24" stroke="none" stroke-width="0" fill="#4c463e" fill-rule="evenodd"></path><path d="M0.44 0.07 C1.08 -0.46, 3 -2.64, 4.18 -2.93 C5.35 -3.21, 6.34 -1.68, 7.51 -1.63 C8.69 -1.57, 9.94 -2.79, 11.21 -2.61 C12.49 -2.44, 14.83 -1.46, 15.17 -0.57 C15.5 0.32, 13.64 2.7, 13.21 2.73 C12.78 2.76, 13.44 0.37, 12.57 -0.37 C11.7 -1.1, 9.63 -1.72, 8 -1.68 C6.37 -1.64, 3.66 -0.9, 2.79 -0.14 C1.92 0.62, 3.25 2.91, 2.77 2.9 C2.29 2.9, 0.34 0.3, -0.1 -0.16 M0.01 -0.37 C0.57 -0.85, 2.78 -1.97, 3.96 -2.33 C5.13 -2.69, 5.8 -2.33, 7.04 -2.55 C8.28 -2.76, 10.11 -3.96, 11.37 -3.6 C12.64 -3.24, 14.48 -1.41, 14.64 -0.39 C14.8 0.63, 12.67 2.63, 12.34 2.53 C12.01 2.42, 13.46 -0.53, 12.66 -1.02 C11.85 -1.51, 9.24 -0.69, 7.51 -0.41 C5.78 -0.12, 3.25 0.15, 2.28 0.7 C1.31 1.26, 2.07 2.99, 1.69 2.91 C1.31 2.83, 0.34 0.68, -0.01 0.21" stroke="#000000" stroke-width="1" fill="none"></path></g></g><mask></mask><g stroke-linecap="round"><g transform="translate(39.65600864615874 37.75981660397474) rotate(0 4.683577170875367 -1.159742609739851)" fill-rule="evenodd"><path d="M-0.25 -0.4 C0.12 -0.85, 2.46 -1.37, 3.42 -1.7 C4.37 -2.02, 4.54 -2.39, 5.47 -2.34 C6.41 -2.29, 8.6 -2.05, 9.01 -1.42 C9.42 -0.79, 9.05 1.2, 7.94 1.43 C6.82 1.66, 3.64 0.22, 2.32 -0.03 C0.99 -0.28, 0.17 -0.05, 0 -0.06" stroke="none" stroke-width="0" fill="#4c463e" fill-rule="evenodd"></path><path d="M0.27 -0.13 C0.7 -0.46, 2.02 -1.52, 2.87 -1.94 C3.72 -2.36, 4.27 -2.85, 5.38 -2.63 C6.5 -2.41, 8.91 -1.2, 9.55 -0.62 C10.19 -0.04, 10.3 0.96, 9.25 0.87 C8.19 0.79, 4.78 -0.92, 3.24 -1.12 C1.69 -1.31, 0.46 -0.45, -0.03 -0.3 M-0.03 -0.51 C0.32 -0.94, 1.64 -2.02, 2.51 -2.47 C3.38 -2.92, 3.99 -3.57, 5.19 -3.2 C6.39 -2.84, 9.1 -0.84, 9.72 -0.29 C10.34 0.25, 9.94 0.28, 8.91 0.09 C7.88 -0.1, 4.98 -1.47, 3.52 -1.45 C2.06 -1.43, 0.7 0.06, 0.14 0.23" stroke="#000000" stroke-width="1" fill="none"></path></g></g><mask></mask><g stroke-linecap="round"><g transform="translate(62.63676063125445 36.698205778576266) rotate(0 -4.5224397555558085 -0.4081401419375652)" fill-rule="evenodd"><path d="M-0.25 -0.4 C-1.06 -0.82, -2.24 -1.56, -3.68 -1.48 C-5.12 -1.41, -7.96 -0.23, -8.89 0.07 C-9.82 0.37, -10.04 0.19, -9.26 0.3 C-8.48 0.41, -5.56 0.59, -4.21 0.71 C-2.86 0.84, -1.88 1.17, -1.18 1.04" stroke="none" stroke-width="0" fill="#4c463e" fill-rule="evenodd"></path><path d="M-0.16 0.18 C-0.87 -0.08, -2.55 -1.58, -4 -1.69 C-5.45 -1.79, -8.08 -0.96, -8.86 -0.44 C-9.65 0.08, -9.63 1.4, -8.71 1.43 C-7.79 1.47, -4.8 0.05, -3.35 -0.24 C-1.9 -0.53, -0.64 -0.3, -0.03 -0.3 M0.41 -0.03 C-0.37 -0.38, -2.69 -2.2, -4.25 -2.2 C-5.82 -2.2, -8.28 -0.56, -8.99 -0.05 C-9.71 0.46, -9.56 0.88, -8.54 0.86 C-7.51 0.84, -4.32 -0.06, -2.84 -0.15 C-1.36 -0.24, -0.04 0.24, 0.37 0.32" stroke="#000000" stroke-width="1" fill="none"></path></g></g><mask></mask><g stroke-linecap="round" transform="translate(40.18878100241511 36.404320728223865) rotate(0 4.920091760260448 4.920091760260448)"><path d="M4.72 -0.08 C5.75 -0.18, 7.05 0.29, 7.84 0.9 C8.63 1.52, 9.26 2.53, 9.47 3.6 C9.68 4.67, 9.58 6.33, 9.12 7.31 C8.66 8.29, 7.71 9.14, 6.73 9.48 C5.75 9.82, 4.25 9.68, 3.26 9.38 C2.27 9.09, 1.37 8.56, 0.79 7.7 C0.21 6.85, -0.39 5.33, -0.24 4.24 C-0.09 3.16, 0.91 1.89, 1.7 1.19 C2.48 0.5, 3.92 0.28, 4.47 0.08 C5.01 -0.12, 5 -0.09, 5 -0.01 M5.28 -0.03 C6.3 -0.15, 7.25 0.54, 7.99 1.27 C8.74 2, 9.56 3.42, 9.78 4.36 C9.99 5.31, 9.81 6.14, 9.3 6.95 C8.8 7.75, 7.77 8.78, 6.77 9.18 C5.76 9.59, 4.27 9.67, 3.28 9.38 C2.29 9.09, 1.36 8.37, 0.84 7.46 C0.32 6.55, 0.02 4.94, 0.13 3.91 C0.24 2.89, 0.63 2.04, 1.5 1.32 C2.36 0.6, 4.77 -0.24, 5.31 -0.42 C5.84 -0.61, 4.79 0.02, 4.72 0.19" stroke="none" stroke-width="0" fill="#00000099"></path><path d="M5.66 -0.22 C6.66 -0.24, 7.7 0.57, 8.35 1.41 C8.99 2.24, 9.48 3.67, 9.54 4.77 C9.6 5.87, 9.24 7.21, 8.73 8.01 C8.21 8.82, 7.45 9.37, 6.45 9.61 C5.45 9.85, 3.73 9.9, 2.75 9.47 C1.77 9.05, 0.98 8.03, 0.57 7.04 C0.16 6.06, 0.07 4.64, 0.29 3.57 C0.51 2.5, 1 1.26, 1.9 0.63 C2.8 -0.01, 5.03 -0.17, 5.68 -0.25 C6.34 -0.33, 5.88 -0.04, 5.83 0.14 M4.82 -0.16 C5.73 -0.27, 7.16 0.14, 7.93 0.81 C8.71 1.48, 9.28 2.73, 9.49 3.86 C9.7 4.98, 9.71 6.57, 9.19 7.57 C8.67 8.58, 7.33 9.53, 6.37 9.9 C5.41 10.27, 4.35 10.17, 3.41 9.81 C2.47 9.45, 1.2 8.78, 0.71 7.75 C0.23 6.72, 0.32 4.7, 0.5 3.62 C0.67 2.54, 1.07 1.92, 1.76 1.28 C2.45 0.64, 4.08 0.05, 4.66 -0.21 C5.24 -0.48, 5.25 -0.39, 5.25 -0.29" stroke="#000000" stroke-width="1" fill="none"></path></g><g stroke-linecap="round" transform="translate(53.18217250188752 36.513052037842954) rotate(0 4.920091760260448 4.920091760260448)"><path d="M4.32 -0.01 C5.25 -0.21, 6.52 0.02, 7.37 0.64 C8.21 1.26, 9.09 2.65, 9.41 3.69 C9.73 4.74, 9.7 6, 9.28 6.89 C8.86 7.78, 7.79 8.56, 6.88 9.04 C5.96 9.52, 4.81 9.98, 3.78 9.76 C2.75 9.55, 1.32 8.62, 0.72 7.74 C0.13 6.87, 0.13 5.51, 0.19 4.5 C0.25 3.48, 0.35 2.41, 1.08 1.65 C1.8 0.88, 4.04 0.17, 4.56 -0.08 C5.08 -0.32, 4.23 0.09, 4.2 0.17 M5.62 0.2 C6.56 0.35, 7.93 1.31, 8.65 2.02 C9.37 2.72, 9.91 3.48, 9.94 4.43 C9.98 5.37, 9.56 6.8, 8.88 7.66 C8.2 8.52, 6.91 9.3, 5.88 9.57 C4.85 9.84, 3.62 9.79, 2.7 9.28 C1.79 8.76, 0.84 7.47, 0.39 6.5 C-0.05 5.54, -0.37 4.51, 0.03 3.47 C0.43 2.44, 1.89 0.84, 2.8 0.28 C3.71 -0.27, 5.04 0.15, 5.51 0.15 C5.98 0.16, 5.53 0.31, 5.63 0.3" stroke="none" stroke-width="0" fill="#00000099"></path><path d="M5.31 -0.01 C6.21 0.11, 7.41 0.94, 8.13 1.74 C8.84 2.53, 9.42 3.78, 9.6 4.78 C9.77 5.77, 9.78 6.86, 9.19 7.69 C8.61 8.52, 7.13 9.48, 6.09 9.77 C5.04 10.05, 3.85 9.89, 2.93 9.41 C2.02 8.93, 1.07 7.91, 0.58 6.9 C0.09 5.9, -0.31 4.42, -0.02 3.37 C0.27 2.32, 1.37 1.16, 2.32 0.6 C3.28 0.04, 5.18 0.06, 5.72 0.03 C6.26 0, 5.61 0.31, 5.55 0.45 M4.58 -0.3 C5.55 -0.4, 6.79 0.12, 7.64 0.85 C8.49 1.58, 9.48 2.96, 9.7 4.08 C9.93 5.2, 9.47 6.62, 9.01 7.56 C8.54 8.49, 7.86 9.31, 6.94 9.71 C6.02 10.11, 4.43 10.38, 3.48 9.94 C2.53 9.5, 1.78 8, 1.21 7.08 C0.65 6.15, 0.06 5.38, 0.08 4.39 C0.11 3.39, 0.55 1.88, 1.38 1.09 C2.21 0.29, 4.55 -0.2, 5.07 -0.38 C5.59 -0.56, 4.58 -0.18, 4.5 0.02" stroke="#000000" stroke-width="1" fill="none"></path></g><g stroke-linecap="round"><g transform="translate(37.687960881178014 37.11107424074771) rotate(0 13.727327839400743 1.1416787509995174)"><path d="M0.3 0.53 C0.6 0.86, 1.3 2.2, 2.1 1.99 C2.9 1.78, 3.73 -0.3, 5.12 -0.74 C6.5 -1.17, 9.15 -1.23, 10.43 -0.64 C11.7 -0.06, 11.85 2.27, 12.74 2.75 C13.63 3.23, 14.74 2.73, 15.77 2.23 C16.81 1.74, 17.73 0.18, 18.96 -0.21 C20.2 -0.61, 22.17 -0.55, 23.17 -0.12 C24.16 0.3, 24.28 2.32, 24.92 2.35 C25.56 2.38, 26.67 0.41, 27.01 0.03 M-0.22 0.32 C0.23 0.74, 2.3 2.76, 3.13 2.65 C3.95 2.53, 3.74 0.12, 4.74 -0.37 C5.74 -0.87, 7.86 -0.92, 9.12 -0.33 C10.38 0.25, 11.1 2.8, 12.3 3.14 C13.51 3.48, 15.19 2.33, 16.36 1.68 C17.54 1.03, 18.27 -0.43, 19.33 -0.74 C20.4 -1.05, 21.66 -0.84, 22.73 -0.18 C23.8 0.48, 25.02 3.19, 25.75 3.22 C26.49 3.25, 26.94 0.7, 27.13 0.01" stroke="#000000" stroke-width="1" fill="none"></path></g></g><mask></mask></svg>